<svg id="Layer_1" data-name="Layer 1" xmlns="http://www.w3.org/2000/svg" viewBox="0 0 29.9 29.76"><defs><style>.cls-1{fill:#ff7100;}</style></defs><title>Artboard 3</title><path class="cls-1" d="M22.73,29.69a24.84,24.84,0,0,1-2.59,0,3.54,3.54,0,0,1-3.08-2.44c-.52-1.4-1-2.83-1.39-4.26a3.77,3.77,0,0,1,1.43-4.12c1.1-.82,2.21-1.62,3.33-2.41a3.8,3.8,0,0,1,4.52,0c1.16.81,2.31,1.65,3.44,2.51A3.84,3.84,0,0,1,29.76,23a1.26,1.26,0,0,1-1.57,1,1.24,1.24,0,0,1-.84-1.59,1.41,1.41,0,0,0-.6-1.62c-1-.75-2.06-1.52-3.09-2.26a1.39,1.39,0,0,0-1.88,0L18.7,20.76a1.38,1.38,0,0,0-.58,1.75c.39,1.23.78,2.46,1.18,3.68a1.38,1.38,0,0,0,1.47,1.07h3.84a1.41,1.41,0,0,0,1.46-1,1.23,1.23,0,0,1,1.63-.76,1.25,1.25,0,0,1,.68,1.67,3.86,3.86,0,0,1-3.49,2.53c-.72,0-1.44,0-2.16,0v-.06"/><path class="cls-1" d="M7,14.05A7,7,0,0,1,5.86.1,6.38,6.38,0,0,1,7,0,1.22,1.22,0,0,1,8.29,1.22,1.24,1.24,0,0,1,7,2.47,4.45,4.45,0,0,0,2.91,5.13a4.52,4.52,0,0,0,.83,5,4.58,4.58,0,0,0,4.91,1.11,4.5,4.5,0,0,0,2.92-4.1A4.4,4.4,0,0,0,10.1,3.68a1.27,1.27,0,0,1-.43-1.36,1.22,1.22,0,0,1,2-.55A6.69,6.69,0,0,1,14,5.85,7,7,0,0,1,7.9,14a8.67,8.67,0,0,1-.88.06"/><path class="cls-1" d="M7,29.76H3.43a3.4,3.4,0,0,1-3-5c.17-.33.36-.66.56-1a1.21,1.21,0,0,1,1.68-.43A1.23,1.23,0,0,1,3.14,25c-.17.32-.37.63-.53.95a.86.86,0,0,0,.8,1.34q3.62,0,7.24,0a.87.87,0,0,0,.78-1.4c-.74-1.32-1.49-2.62-2.24-3.93-.46-.8-.9-1.6-1.36-2.39s-1.13-.8-1.59,0c-.38.65-.74,1.3-1.12,2a1.24,1.24,0,0,1-1.74.55A1.25,1.25,0,0,1,3,20.28c.39-.69.77-1.37,1.17-2.05a3.35,3.35,0,0,1,5.8,0c1.22,2.11,2.42,4.23,3.62,6.35a3.41,3.41,0,0,1-3,5.16H7"/><path class="cls-1" d="M22.72.84c.9,0,1.79,0,2.68,0a3.65,3.65,0,0,1,3.51,3.51Q29,7,28.91,9.69a3.71,3.71,0,0,1-3.66,3.54A1.26,1.26,0,0,1,24,12a1.23,1.23,0,0,1,1.17-1.29,1.25,1.25,0,0,0,1.32-1.43V4.68a1.21,1.21,0,0,0-1.36-1.37H20.37A1.23,1.23,0,0,0,19,4.65V9.38a1.25,1.25,0,0,0,1.26,1.37,1.22,1.22,0,0,1,1.23,1.34,1.24,1.24,0,0,1-1.44,1.12,3.71,3.71,0,0,1-3.52-3.72c0-1.64,0-3.29,0-4.92A3.71,3.71,0,0,1,20.32.83c.8,0,1.6,0,2.4,0h0"/></svg>