<svg id="Layer_1" data-name="Layer 1" xmlns="http://www.w3.org/2000/svg" viewBox="0 0 40 50"><defs><style>.cls-1{fill:#34414b;}</style></defs><title>Artboard 7</title><path class="cls-1" d="M36.23,3.81H32.49V16.25a3.15,3.15,0,0,1-1.93,3.18,3,3,0,0,1-2.86-.24c-.74-.43-1.48-.86-2.2-1.33a.78.78,0,0,0-1,0c-.7.46-1.43.88-2.15,1.3a3.1,3.1,0,0,1-4.84-2.71c0-4,0-7.91,0-11.87V3.82l-.67,0H5.9c-1.47,0-2.13.67-2.14,2.15s0,3.24,0,4.86A1.87,1.87,0,0,1,1.9,12.89,1.92,1.92,0,0,1,0,10.79C0,8.84,0,6.88.11,4.94A5.34,5.34,0,0,1,5.35.06C7.55,0,9.75,0,12,0l17.6,0c2.36,0,4.72,0,7.08,0A3.07,3.07,0,0,1,40,3.35q0,14.36,0,28.73A1.88,1.88,0,1,1,36.24,32q0-13.7,0-27.38ZM28.7,15.42V3.84H21.3V15.42c.68-.41,1.31-.76,1.91-1.15a3.11,3.11,0,0,1,3.57,0c.61.38,1.23.74,1.92,1.15"/><path class="cls-1" d="M3.76,38.91c3.8-.39,7.54-.16,11.27-.18,7.31,0,14.63,0,21.94,0l1.05,0a1.93,1.93,0,0,1,2,1.95c0,2,0,4,0,6A3.06,3.06,0,0,1,36.67,50c-3.43,0-6.86,0-10.29,0L6.14,50a6.2,6.2,0,0,1-3.85-1.1A5.32,5.32,0,0,1,0,44.5C0,36,0,27.42,0,18.87a1.85,1.85,0,0,1,1.92-2,1.83,1.83,0,0,1,1.82,2v20Zm32.45,3.56H5.87c-1.32,0-2.07.68-2.06,1.86s.73,1.86,2,1.86l29.65,0h.71Z"/></svg>