<svg id="Layer_1" data-name="Layer 1" xmlns="http://www.w3.org/2000/svg" viewBox="0 0 50.02 50"><defs><style>.cls-1{fill:#34414b;}</style></defs><title>Artboard 5</title><path class="cls-1" d="M46.05,30.27c-1.33.45-2.61.92-3.92,1.3a6.45,6.45,0,0,1-1.59.13c-2.16,0-4.31,0-6.47,0-1,0-2-.11-3.15-.17,0,.66,0,1.23,0,1.79a2,2,0,0,1-2.21,2.2c-2.49,0-5,0-7.46,0a2,2,0,0,1-2.16-2.19V31.57H9.54A9.27,9.27,0,0,1,.19,23.89,10.24,10.24,0,0,1,0,22.06q0-4,0-7.95A5.89,5.89,0,0,1,6.26,7.9c2,0,4.07,0,6.1,0h.82c0-1.13,0-2.21,0-3.29A4.52,4.52,0,0,1,15.27.77,4.58,4.58,0,0,1,17.84,0c4.78,0,9.57,0,14.35,0a4.58,4.58,0,0,1,4.65,4.72c0,1,0,2.05,0,3.16h.82c2.4,0,4.81-.06,7.2.1a5.49,5.49,0,0,1,5,5.07c.16,2.15.11,4.31.12,6.47q0,12.11,0,24.22A5.86,5.86,0,0,1,43.78,50H6.26A5.88,5.88,0,0,1,0,43.78q0-4.22,0-8.44a2,2,0,0,1,2.66-2.06,2,2,0,0,1,1.28,2c0,2.75,0,5.5,0,8.25,0,1.83.66,2.48,2.5,2.48H43.61c1.76,0,2.44-.67,2.44-2.41V30.27ZM30.92,27.63H34c2.38,0,4.76.15,7.13.08A5.13,5.13,0,0,0,46,22.82c.09-3,.08-5.95.07-8.93a1.89,1.89,0,0,0-2-2q-4.47,0-8.94,0A2,2,0,0,1,32.9,9.81c0-1.58,0-3.16,0-4.74,0-1-.16-1.11-1.1-1.11H18c-.43,0-.83.13-.85.61,0,1.1,0,2.2,0,3.34h4.26c1.42,0,2.83,0,4.25,0a1.94,1.94,0,0,1,2,2,1.92,1.92,0,0,1-2,1.94c-3.51,0-7,0-10.53,0-3,0-6,0-9,0A1.93,1.93,0,0,0,4,14C4,15.33,4,16.68,4,18s0,3,0,4.43A5.27,5.27,0,0,0,9.14,27.6c3.22.06,6.44,0,9.67,0,.07,0,.15,0,.28-.05,0-.63,0-1.24,0-1.85a1.94,1.94,0,0,1,2-2c2.63,0,5.26,0,7.89,0a1.94,1.94,0,0,1,2,2.06c0,.6,0,1.19,0,1.88m-4,0H23.07v3.85H27Z"/></svg>