<svg id="Layer_1" data-name="Layer 1" xmlns="http://www.w3.org/2000/svg" viewBox="0 0 40.04 50"><defs><style>.cls-1{fill:#34414b;}</style></defs><title>Artboard 2</title><path class="cls-1" d="M23.71,30c3.06,0,6.13,0,9.2,0a7.09,7.09,0,0,1,7,5.78,8.67,8.67,0,0,1-1.6,6.66,15.88,15.88,0,0,1-7.86,5.75,34.54,34.54,0,0,1-3.76,1.11A1.87,1.87,0,0,1,24.18,48a1.93,1.93,0,0,1,1.7-2.3,18.23,18.23,0,0,0,6.82-2.84,8,8,0,0,0,3.43-4.51,3.43,3.43,0,0,0-2.43-4.44,5,5,0,0,0-1.16-.1H14.37a5.81,5.81,0,0,1-.59,0,1.86,1.86,0,0,1-1.75-2A1.83,1.83,0,0,1,13.92,30c3.26,0,6.52,0,9.79,0Z"/><path class="cls-1" d="M19.16,50A25.75,25.75,0,0,1,6.08,46.48,12.54,12.54,0,0,1,.49,40a7.33,7.33,0,0,1,3.69-9.36,9.6,9.6,0,0,1,5-.58,1.75,1.75,0,0,1,1.48,1.78,1.77,1.77,0,0,1-1.42,1.83,7.82,7.82,0,0,1-1.81.08,3.45,3.45,0,0,0-3.52,4.6,7.13,7.13,0,0,0,2.24,3.51A16.9,16.9,0,0,0,14,45.63a28.72,28.72,0,0,0,6.28.63,1.87,1.87,0,0,1,1.93,2.5A1.76,1.76,0,0,1,20.62,50c-.49,0-1,0-1.46,0"/><path class="cls-1" d="M32.55,12.12a12.55,12.55,0,0,1-11,12.74,20.1,20.1,0,0,1-3.95-.12,1.85,1.85,0,0,1-1.69-2.24,1.93,1.93,0,0,1,2.37-1.44A8.75,8.75,0,0,0,25.56,5.7a1.91,1.91,0,0,1-.24-3,1.84,1.84,0,0,1,2.43,0,12.35,12.35,0,0,1,4.58,7.67c.11.59.14,1.2.22,1.8"/><path class="cls-1" d="M7.48,12.86A12.6,12.6,0,0,1,18.17.12,17.32,17.32,0,0,1,20.56,0a1.85,1.85,0,0,1,1.89,1.89,2,2,0,0,1-2,1.87,14,14,0,0,0-3.11.39,8.75,8.75,0,0,0-4.07,14,3.12,3.12,0,0,1,.63,1.51,1.7,1.7,0,0,1-1.2,1.7,1.84,1.84,0,0,1-2.07-.55,12.32,12.32,0,0,1-3-6.14c-.1-.6-.15-1.2-.22-1.8"/></svg>