<svg id="Layer_1" data-name="Layer 1" xmlns="http://www.w3.org/2000/svg" viewBox="0 0 45.05 50"><defs><style>.cls-1{fill:#34414b;}</style></defs><title>Artboard 8</title><path class="cls-1" d="M0,25Q0,16.36,0,7.74a8,8,0,0,1,2.4-5.9A6,6,0,0,1,6.35,0c.72,0,1.44,0,2.17,0a2,2,0,0,1,1.67,2.72A1.81,1.81,0,0,1,8.26,4.12c-.31,0-.62,0-.93,0A3.41,3.41,0,0,0,3.75,7.7c0,5.53,0,11.06,0,16.6,0,6,0,11.92,0,17.89a3.68,3.68,0,0,0,1,2.76,3.09,3.09,0,0,0,2.37.82q10.81,0,21.63,0a2.09,2.09,0,0,1,2.1,2.64A1.86,1.86,0,0,1,29,50Q17.86,50,6.78,50a7,7,0,0,1-6-4.2,9.75,9.75,0,0,1-.77-4Q0,33.4,0,25"/><path class="cls-1" d="M45.05,25v17.3a7.94,7.94,0,0,1-2.66,6.13,5.32,5.32,0,0,1-3,1.48,28.6,28.6,0,0,1-3.34.11,1.79,1.79,0,0,1-1.62-1.53,2.1,2.1,0,0,1,.78-2.23,2.24,2.24,0,0,1,1.46-.45c.37,0,.75,0,1.12,0a3.18,3.18,0,0,0,3.48-3.49q0-6.41,0-12.79c0-7.18,0-14.35,0-21.53a3.69,3.69,0,0,0-2.17-3.67,3.13,3.13,0,0,0-1.27-.17h-21c-2,0-2.85-1.43-2-3.21a1.69,1.69,0,0,1,1.7-.9H38.2a6.15,6.15,0,0,1,4.43,1.81A7.91,7.91,0,0,1,45.05,7.7V25"/><path class="cls-1" d="M29.38,25,25,22.46l-4.46-2.6-3.81-2.22a2.75,2.75,0,0,0-.41-.18V32.58c.58-.3,1.1-.56,1.6-.84l2.34-1.38c.64-.38,1.94.47,2.18,1.13a2.28,2.28,0,0,1-1.1,2.93c-1.21.7-2.4,1.41-3.59,2.12a3.53,3.53,0,0,1-2.67.61A3.26,3.26,0,0,1,12.55,34c0-3.6,0-7.2,0-10.8,0-2.36,0-4.73,0-7.09A3.21,3.21,0,0,1,15,12.9a3.39,3.39,0,0,1,1.93.19c1.89,1,3.71,2.14,5.56,3.22l2.16,1.26c1.13.64,2.27,1.26,3.4,1.91,1.41.81,2.84,1.58,4.2,2.47a3.76,3.76,0,0,1,1.27,4.48A3.43,3.43,0,0,1,32,28.2c-1.55,1-3.13,1.86-4.73,2.72a2.33,2.33,0,0,1-1.4.22c-.86-.13-1.24-.64-1.44-1.69a2.07,2.07,0,0,1,1-2.13L29.38,25"/></svg>