<svg id="Layer_1" data-name="Layer 1" xmlns="http://www.w3.org/2000/svg" viewBox="0 0 38.07 50"><defs><style>.cls-1{fill:#34414b;}</style></defs><title>Artboard 6</title><path class="cls-1" d="M19,38.87h5c1,0,1.39-.39,1.4-1.4s0-2,0-3a2.05,2.05,0,0,1,1.14-2,15.72,15.72,0,0,0,4.72-4.1,1.82,1.82,0,0,1,2.59-.49,1.86,1.86,0,0,1,.33,2.74A18.39,18.39,0,0,1,29.52,35a1,1,0,0,0-.48.89,19.11,19.11,0,0,1-.13,2.93,4.33,4.33,0,0,1-2.06,3,.76.76,0,0,0-.38.74,24,24,0,0,1-.1,3.4,4.7,4.7,0,0,1-4.63,4c-1.77,0-3.54,0-5.31,0a4.85,4.85,0,0,1-4.73-4.8c0-.88,0-1.77,0-2.65a.75.75,0,0,0-.29-.53,5,5,0,0,1-2.53-4.5,5.21,5.21,0,0,0-.08-2.1c-.28-.57-1.06-.89-1.61-1.33A18.86,18.86,0,0,1,2,10.86a1.81,1.81,0,0,1,2.06-1.1,1.73,1.73,0,0,1,1.46,1.63,3.52,3.52,0,0,1-.35,1.37,15,15,0,0,0,1.13,15,14.31,14.31,0,0,0,5.05,4.73,2.12,2.12,0,0,1,1.22,2.1c0,1,0,2,0,2.94S13,38.87,14,38.87h5m-3.6,3.79c0,.87,0,1.68,0,2.48a1.11,1.11,0,0,0,1.09,1.13q2.6,0,5.19,0a1.06,1.06,0,0,0,1.07-1c.05-.87,0-1.75,0-2.65Z"/><path class="cls-1" d="M19,0A19.07,19.07,0,0,1,37.81,16.14a19.18,19.18,0,0,1,0,6.37,1.83,1.83,0,0,1-2.22,1.57,1.89,1.89,0,0,1-1.39-2.29A15.41,15.41,0,0,0,10.49,6.27l-.49.3a1.84,1.84,0,1,1-2-3.1A20,20,0,0,1,19,0"/></svg>