<svg id="Layer_1" data-name="Layer 1" xmlns="http://www.w3.org/2000/svg" viewBox="0 0 48.38 50"><defs><style>.cls-1{fill:#34414b;}</style></defs><title>Artboard 10</title><path class="cls-1" d="M44.27,17.85a20.51,20.51,0,0,0-3.56-6.13c-.81.35-1.6.71-2.39,1A7.5,7.5,0,0,1,28.21,7.6a24.68,24.68,0,0,1-.42-3c0-.39-.16-.56-.58-.62a20.89,20.89,0,0,0-7.84.3A1.87,1.87,0,0,1,17,2.8,1.92,1.92,0,0,1,18.65.61a24.92,24.92,0,0,1,11,0,2,2,0,0,1,1.69,1.84c.17,1.32.33,2.65.5,4A3.72,3.72,0,0,0,37,9.23c1.14-.47,2.26-1,3.39-1.49a1.85,1.85,0,0,1,2.3.45,24.89,24.89,0,0,1,5.58,9.58,2,2,0,0,1-.89,2.54L44.7,22.18a3.75,3.75,0,0,0,0,6.16l2.68,1.9a1.94,1.94,0,0,1,.83,2.46,24.25,24.25,0,0,1-5.51,9.55,1.91,1.91,0,0,1-2.4.5c-1-.44-2-.88-3-1.34a4,4,0,0,0-3.72.07,1.88,1.88,0,0,1-2.75-2,1.85,1.85,0,0,1,1-1.34,7.55,7.55,0,0,1,6.54-.32c.76.31,1.5.66,2.3,1a20.29,20.29,0,0,0,3.55-6.15c-.65-.46-1.27-.89-1.89-1.34a7.52,7.52,0,0,1-.2-11.95c.66-.52,1.36-1,2.08-1.51"/><path class="cls-1" d="M7.66,11.45a19.7,19.7,0,0,0-3.44,5.88.54.54,0,0,0,.18.46c.51.4,1,.76,1.58,1.13a7.54,7.54,0,0,1,.24,12c-.66.52-1.36,1-2,1.48.19,1.29,2.11,4.64,3.53,6.16l2.07-.91a7.51,7.51,0,0,1,10.4,5,23.54,23.54,0,0,1,.35,2.8c0,.37.18.51.57.57a20.9,20.9,0,0,0,7.72-.3,1.9,1.9,0,0,1,2.45,1.48,1.94,1.94,0,0,1-1.69,2.22,25.11,25.11,0,0,1-11,0A1.93,1.93,0,0,1,17,47.56c-.12-1.15-.25-2.3-.36-3.46A3.7,3.7,0,0,0,11.47,41c-1.12.46-2.22,1-3.34,1.47a1.91,1.91,0,0,1-2.52-.55A24.83,24.83,0,0,1,.18,32.51a2,2,0,0,1,.89-2.58c.86-.61,1.72-1.23,2.59-1.83a3.8,3.8,0,0,0,0-6.22C2.7,21.3,1.82,20.6.91,20a1.87,1.87,0,0,1-.8-2.26A23.94,23.94,0,0,1,5.77,7.9,1.86,1.86,0,0,1,8,7.48c1.07.46,2.12.93,3.18,1.41a3.85,3.85,0,0,0,3.51-.08,1.89,1.89,0,1,1,1.75,3.34,7.51,7.51,0,0,1-6.54.3c-.76-.31-1.5-.66-2.27-1"/><path class="cls-1" d="M34.18,25.14a10,10,0,1,1-10-10.06,10,10,0,0,1,10,10.06m-16.32-.07a6.27,6.27,0,1,0,6.34-6.22,6.25,6.25,0,0,0-6.34,6.22"/></svg>