<svg id="Layer_1" data-name="Layer 1" xmlns="http://www.w3.org/2000/svg" viewBox="0 0 55.56 50"><defs><style>.cls-1{fill:#34414b;}</style></defs><title>Artboard 4</title><path class="cls-1" d="M27.8,19.43H35a4.9,4.9,0,0,1,5.25,5.25V37.31a13.22,13.22,0,0,1-1.53,6.25A2.09,2.09,0,1,1,35,41.68,10,10,0,0,0,36.11,37c0-4.1,0-8.2,0-12.3,0-.88-.2-1.08-1.06-1.08H20.52c-.88,0-1.08.2-1.08,1.06,0,4.25,0,8.5,0,12.76a8.39,8.39,0,0,0,8.19,8.41A2.09,2.09,0,1,1,27.55,50,12.56,12.56,0,0,1,15.29,37.91c-.07-4.56,0-9.12,0-13.67a4.84,4.84,0,0,1,5-4.8c2.51,0,5,0,7.55,0"/><path class="cls-1" d="M0,29.49c0-1.8,0-3.6,0-5.4a4.42,4.42,0,0,1,4.65-4.66h6.18A2.08,2.08,0,0,1,13,20.94a1.94,1.94,0,0,1-.81,2.27,3,3,0,0,1-1.41.37c-2,0-3.94,0-5.92,0-.46,0-.65.12-.65.62,0,3.6,0,7.21,0,10.8a6.53,6.53,0,0,0,4.63,6.18,10.66,10.66,0,0,0,2.11.33,2.09,2.09,0,1,1-.11,4.18A10.83,10.83,0,0,1,0,35.15c0-1.89,0-3.77,0-5.66Z"/><path class="cls-1" d="M55.52,29.7c0,1.91.11,3.83,0,5.73a10.37,10.37,0,0,1-6.65,9.45,9.23,9.23,0,0,1-4.13.68,2.1,2.1,0,0,1-2.09-2.13,2.05,2.05,0,0,1,2.18-2,6.38,6.38,0,0,0,6.56-6.51q0-5.31,0-10.61c0-.55-.18-.71-.71-.7-2,0-3.91,0-5.86,0a2.11,2.11,0,0,1-2.32-2.09,2.14,2.14,0,0,1,2.34-2.08h6.06a4.43,4.43,0,0,1,4.65,4.67v5.6Z"/><path class="cls-1" d="M9.46,17.63a7.36,7.36,0,1,1,7.35-7.39,7.34,7.34,0,0,1-7.35,7.39m-3.2-7.37a3.16,3.16,0,0,0,3.15,3.2,3.19,3.19,0,1,0,0-6.38,3.18,3.18,0,0,0-3.18,3.18"/><path class="cls-1" d="M53.59,10.31a7.36,7.36,0,1,1-7.33-7.4,7.32,7.32,0,0,1,7.33,7.4m-4.17-.05a3.17,3.17,0,0,0-3.17-3.18,3.19,3.19,0,1,0,0,6.38,3.16,3.16,0,0,0,3.15-3.2"/><path class="cls-1" d="M36.1,8.36A8.32,8.32,0,0,1,19.55,9.57a9.26,9.26,0,0,1-.11-1.17,2.08,2.08,0,1,1,4.16-.11,4.12,4.12,0,0,0,2.81,4,4,4,0,0,0,4.36-1,3.93,3.93,0,0,0,.84-4.46,4,4,0,0,0-3.67-2.58A2.12,2.12,0,0,1,25.69,2a2.12,2.12,0,0,1,2.4-2,8.31,8.31,0,0,1,8,8.36"/></svg>