<?xml version="1.0" encoding="utf-8"?>
<!-- Generator: Adobe Illustrator 27.9.0, SVG Export Plug-In . SVG Version: 6.00 Build 0)  -->
<svg version="1.1" id="Layer_1" xmlns="http://www.w3.org/2000/svg" xmlns:xlink="http://www.w3.org/1999/xlink" x="0px" y="0px"
	 viewBox="0 0 500 500" style="enable-background:new 0 0 500 500;" xml:space="preserve">
<style type="text/css">
	.st0{fill:#F37321;}
	.st1{fill:#35424C;}
</style>
<g id="_x31_1PI5U.tif_00000034769464616919198810000014275178009390099855_">
	<g>
		<path class="st0" d="M-613.67-13.01c-2.31,0-4.61,0.01-6.92,0c-1.21,0-2.18-0.88-2.45-2.19c-0.05-0.23-0.04-0.46-0.04-0.68
			c0-4.58,0-9.17,0-13.75c0-1.85,0.64-3.38,1.92-4.57c0.83-0.78,1.7-1.52,2.55-2.28c0.32-0.28,0.67-0.41,1.07-0.26
			c0.39,0.15,0.65,0.45,0.73,0.9c0.08,0.48-0.06,0.88-0.4,1.19c-0.8,0.71-1.59,1.43-2.4,2.13c-0.89,0.77-1.31,1.78-1.31,3.02
			c0,4.45,0,8.9,0,13.35c0,0.65,0.06,0.71,0.63,0.71c4.02,0,8.05,0,12.07,0c0.45,0,0.45,0,0.45-0.5c0-2.73,0-5.45,0-8.18
			c0-0.48,0-0.48-0.43-0.48c-1.53,0-3.06,0.01-4.59-0.01c-0.32,0-0.41,0.1-0.41,0.45c0.01,1.72,0.01,3.45,0,5.17
			c0,0.14,0,0.29-0.02,0.43c-0.1,0.66-0.58,1.08-1.15,1.04c-0.57-0.04-1.01-0.54-1.01-1.2c-0.01-2.12-0.02-4.25,0-6.37
			c0.01-1.12,0.75-1.91,1.84-1.93c2.04-0.03,4.09-0.03,6.13,0c1.15,0.02,1.83,0.85,1.83,2.12c0,3.21,0,6.42,0,9.63
			c0,0.29,0.01,0.58,0.05,0.86c0.1,0.77-0.42,1.38-1.18,1.38c-2.25,0-4.51,0-6.76,0C-613.54-13.01-613.6-13.01-613.67-13.01z"/>
		<path class="st0" d="M-597.84-22.89c0,2.35,0,4.7,0,7.06c0,1.65-1.07,2.81-2.57,2.82c-0.75,0-1.51,0-2.26,0
			c-0.68,0-1.17-0.5-1.18-1.18c-0.01-0.68,0.45-1.21,1.13-1.23c0.73-0.02,1.47-0.01,2.2-0.01c0.43,0,0.53-0.11,0.53-0.57
			c0-4.54,0.01-9.07,0-13.61c0-1.19-0.42-2.15-1.29-2.9c-2.96-2.54-5.9-5.11-8.84-7.67c-0.25-0.22-0.41-0.24-0.66-0.01
			c-0.86,0.77-1.73,1.52-2.61,2.25c-0.69,0.58-1.59,0.23-1.77-0.68c-0.09-0.47,0.05-0.87,0.39-1.16c1.1-0.96,2.2-1.92,3.31-2.85
			c0.65-0.55,1.43-0.5,2.15,0.11c0.96,0.82,1.91,1.65,2.86,2.48c2.25,1.95,4.51,3.9,6.75,5.87c1.22,1.08,1.84,2.53,1.86,4.25
			C-597.82-27.57-597.84-25.23-597.84-22.89z"/>
	</g>
</g>
<g id="WkqA4s.tif_00000142157768412090583420000011672097706337877665_">
	<g>
		<path class="st0" d="M440.73,302.7c-12.09,4.48-23.69,9.15-35.53,12.96c-4.54,1.46-9.59,1.26-14.41,1.29
			c-19.55,0.13-39.1,0.24-58.65-0.03c-9.24-0.13-18.46-1.11-28.54-1.77c0,6.63,0.02,12.29,0,17.95
			c-0.06,14.32-6.99,21.97-20.07,21.99c-22.53,0.05-45.06,0.06-67.58-0.01c-12.62-0.04-19.53-7.85-19.6-21.89
			c-0.03-5.54,0-11.07,0-17.53c-2.27,0-4.24,0-6.21,0c-26.81,0-53.62,0.07-80.43-0.02c-42.91-0.15-76.42-30.45-84.75-76.76
			c-1.08-6-1.63-12.22-1.65-18.34c-0.11-26.5,0-53,0.15-79.49c0.21-37.4,22.56-61.89,56.6-62.06c18.43-0.09,36.86-0.01,55.3-0.01
			c2.21,0,4.42,0,7.36,0c0-11.27-0.15-22.09,0.04-32.9c0.29-16.37,6.74-29.2,18.99-38.38c6.97-5.22,14.87-7.55,23.22-7.57
			c43.38-0.07,86.76-0.31,130.14,0.08c24.49,0.22,41.94,20.29,42.12,47.22c0.07,10.23,0.01,20.47,0.01,31.55c2.76,0,5.1-0.02,7.44,0
			c21.77,0.25,43.62-0.63,65.3,1.06c24.33,1.89,43.85,23.76,45.68,50.68c1.46,21.46,1.02,43.09,1.03,64.65
			c0.03,80.73-0.05,161.46-0.19,242.19c-0.07,37.53-22.4,62.35-56.3,62.37c-113.39,0.09-226.77,0.09-340.16,0.01
			c-34.01-0.02-56.42-24.74-56.56-62.1c-0.11-28.14-0.11-56.29,0-84.43c0.06-15.71,11.81-25.62,24.12-20.63
			c7.47,3.03,11.59,10.09,11.6,20.39c0.05,27.53,0.02,55.05,0.01,82.58c0,18.27,5.91,24.74,22.63,24.74
			c112.27,0,224.53,0,336.8,0.01c15.95,0,22.08-6.69,22.09-24.12c0.01-42.93,0-85.87,0-128.8
			C440.73,305.56,440.73,303.54,440.73,302.7z M303.6,276.26c9.85,0,18.95-0.1,28.05,0.02c21.56,0.28,43.15,1.51,64.68,0.78
			c23.22-0.78,43.07-23.24,43.71-48.86c0.74-29.76,0.66-59.55,0.6-89.32c-0.02-12.75-7.04-20.33-18.62-20.38
			c-26.99-0.12-53.98-0.03-80.97,0.26c-11.44,0.12-19.55-8.04-19.58-20.66c-0.03-15.82-0.01-31.63-0.02-47.45
			c0-9.5-1.44-11.12-9.98-11.12c-32.39-0.01-64.79,0-97.18,0c-9.31,0-18.62,0.02-27.92-0.01c-3.93-0.01-7.56,1.22-7.73,6.03
			c-0.37,11-0.12,22.02-0.12,33.41c13.35,0,25.99,0,38.63,0c12.85,0,25.7-0.25,38.53,0.1c10.73,0.29,18.06,8.77,17.97,19.96
			c-0.09,11.21-7.54,19.27-18.39,19.35c-31.83,0.23-63.66,0.37-95.49,0.38c-27.18,0.01-54.35-0.33-81.53-0.27
			c-12.12,0.02-18.95,7.75-19.01,21.22c-0.06,13.55,0.29,27.1,0.33,40.65c0.05,14.79-0.02,29.58-0.09,44.36
			c-0.13,26.82,21.12,50.76,46.59,51.25c29.22,0.57,58.45,0.17,87.68,0.17c0.69,0,1.39-0.25,2.59-0.48c0-6.27-0.09-12.39,0.02-18.5
			c0.2-11.64,7.16-20.12,17.75-20.28c23.82-0.35,47.66-0.34,71.48-0.02c10.86,0.15,17.82,8.64,17.98,20.66
			C303.67,263.47,303.6,269.39,303.6,276.26z M267.68,276.71c-12.11,0-23.7,0-35.24,0c0,13.14,0,25.78,0,38.46
			c11.92,0,23.5,0,35.24,0C267.68,302.19,267.68,289.71,267.68,276.71z"/>
	</g>
</g>
<g id="_x31_tVIAV.tif_00000173841354968616753690000017150618454224579487_">
	<g>
		<path class="st0" d="M893.85,379.93c15,0,30,0.01,45-0.01c9.02-0.01,12.58-3.9,12.66-13.98c0.08-10.01,0.11-20.02,0-30.02
			c-0.1-8.92,3.19-15.31,10.36-19.75c16.79-10.38,30.93-24.2,42.76-40.97c6.41-9.08,15.86-10.88,23.51-4.94
			c8.12,6.3,9.43,18.12,2.97,27.46c-11.75,16.96-25.61,31.48-41.86,43.11c-3.14,2.25-4.33,4.65-4.34,8.81
			c-0.02,9.78,0.17,19.7-1.21,29.31c-1.85,12.93-8.69,22.96-18.66,30.04c-2.75,1.95-3.45,4.05-3.47,7.45
			c-0.04,11.33,0.57,22.83-0.89,33.97c-3.07,23.36-20.5,39.83-41.99,40.43c-16.04,0.45-32.1,0.48-48.13,0
			c-23.91-0.72-42.34-21.56-42.85-47.91c-0.17-8.85,0.1-17.71-0.18-26.55c-0.06-1.82-1.3-4.34-2.68-5.26
			c-15.45-10.23-22.77-25.36-22.89-45.02c-0.04-7.11,1.82-15.29-0.74-21.04c-2.53-5.69-9.61-8.87-14.62-13.25
			c-63.43-55.49-83.16-152.98-46.97-232.06c4-8.73,10.59-12.6,18.75-10.99c7.11,1.4,13.08,8.02,13.21,16.35
			c0.07,4.55-1.51,9.38-3.21,13.66c-20.59,51.88-17.64,101.82,10.25,149.5c11.62,19.87,27.08,35.65,45.78,47.29
			c7.66,4.76,11.41,11.26,11.12,21.01c-0.29,9.8-0.14,19.63-0.03,29.44c0.11,10,3.77,13.88,12.82,13.89
			C863.5,379.94,878.67,379.93,893.85,379.93z M861.21,417.77c0,8.75-0.18,16.81,0.06,24.85c0.19,6.4,4.17,11.14,9.88,11.24
			c15.67,0.26,31.36,0.23,47.03,0.02c5.11-0.07,9.34-4.06,9.65-9.55c0.49-8.74,0.13-17.55,0.13-26.56
			C905.6,417.77,883.71,417.77,861.21,417.77z"/>
		<path class="st0" d="M893.89-8.8c84.48-0.37,158.07,69.22,170.54,161.35c2.87,21.24,3.36,42.54-0.2,63.74
			c-1.93,11.5-10.35,17.8-20.15,15.7c-9.14-1.96-14.14-11.66-12.61-22.93c12.32-91.06-42.04-163.2-110.73-177.94
			c-37.43-8.03-71.92,0.82-104.03,22.73c-1.48,1.01-2.92,2.09-4.42,3.07c-8.53,5.55-18.33,3.16-23.33-5.65
			c-4.88-8.61-2.77-19.5,5.24-25.35C824.41,3.85,857.45-8.43,893.89-8.8z"/>
	</g>
</g>
<g id="abIp8T.tif_00000044873386704249577680000002081873383934384809_">
	<g>
		<path class="st0" d="M1061.19,572.43c-11.48,0-22.23,0-33.92,0c0,2.25,0,4.48,0,6.71c0,39.2,0.01,78.4,0,117.61
			c0,14.53-5.05,25.86-17.54,31.85c-8.87,4.25-17.63,3.02-25.89-2.38c-6.69-4.36-13.43-8.65-19.94-13.32
			c-3.21-2.31-5.71-2.54-9.03-0.1c-6.32,4.64-12.93,8.78-19.48,13.02c-20.68,13.37-43.66-0.63-43.85-27.08
			c-0.27-39.59-0.08-79.18-0.08-118.78c0-2.3,0-4.6,0-7.46c-2.34-0.13-4.21-0.31-6.08-0.31c-33.06-0.02-66.12-0.03-99.18,0
			c-13.32,0.01-19.33,6.72-19.36,21.55c-0.03,16.19,0.03,32.38-0.03,48.56c-0.04,12.58-6.84,20.91-16.92,20.88
			c-9.96-0.03-17.03-8.55-16.99-20.97c0.07-19.49-0.59-39.07,0.78-58.46c1.94-27.34,22.63-48.12,47.48-48.81
			c19.96-0.55,39.95-0.19,59.93-0.24c53.21-0.14,106.42-0.33,159.62-0.39c21.39-0.02,42.77,0.19,64.16,0.41
			c18.9,0.19,30.2,12.24,30.23,33.06c0.13,95.76,0.08,191.52,0.03,287.28c-0.01,11.98-7.23,20.4-17.02,20.4
			c-9.96,0-16.9-8.51-16.91-20.96c-0.02-91.28-0.02-182.55-0.02-273.83C1061.19,578.16,1061.19,575.65,1061.19,572.43z
			 M992.89,688.52c0-39.28,0-77.53,0-115.79c-22.6,0-44.79,0-67.05,0c0,38.56,0,76.77,0,115.72c6.16-4.06,11.81-7.6,17.29-11.42
			c10.82-7.56,21.53-7.48,32.36-0.02C981,680.81,986.64,684.4,992.89,688.52z"/>
		<path class="st0" d="M766.83,923.45c34.39-3.93,68.31-1.64,102.16-1.84c66.29-0.4,132.58-0.11,198.86-0.12
			c3.18,0,6.36-0.2,9.54-0.18c10.17,0.05,17.89,8.31,17.92,19.47c0.04,20.09,0.07,40.17-0.2,60.26
			c-0.27,20.52-11.35,32.69-29.92,32.79c-31.11,0.17-62.22,0-93.33,0.06c-61.16,0.11-122.31,0.25-183.47,0.43
			c-12.63,0.04-24.53-2.46-34.93-11.01c-13.38-10.98-20.56-25.94-20.61-44c-0.25-85.41-0.06-170.83,0.07-256.24
			c0.02-11.92,7.41-19.98,17.43-19.77c9.81,0.21,16.44,8.14,16.45,20.1c0.05,64.55,0.02,129.1,0.03,193.65
			C766.83,919.3,766.83,921.58,766.83,923.45z M1060.94,958.96c-2.4,0-4.3,0-6.2,0c-14.14,0-28.28,0-42.42,0
			c-75.47,0-150.94-0.02-226.41,0.02c-11.96,0.01-18.73,6.87-18.66,18.57c0.08,11.97,6.65,18.61,18.49,18.62
			c89.61,0.08,179.22,0.15,268.83,0.23c2.04,0,4.08,0,6.37,0C1060.94,983.68,1060.94,971.85,1060.94,958.96z"/>
	</g>
</g>
<g id="K9ZBK4.tif_00000100361373223662792930000014932470307489080507_">
	<g>
		<path class="st0" d="M721.67,214.12c0-57.48,0.04-114.96-0.02-172.44c-0.03-22.96,7.03-42.96,21.75-58.92
			c9.69-10.52,21.65-17.47,35.76-18.14c6.54-0.31,13.12-0.43,19.66-0.09c11.36,0.6,19.01,14.52,15.17,27.17
			c-2.88,9.49-8.18,13.69-17.45,13.8c-2.83,0.03-5.68,0.22-8.5-0.02c-19.11-1.62-32.48,16.39-32.41,35.82
			c0.22,55.33,0.08,110.66,0.08,165.99c0,59.63,0.04,119.26-0.04,178.89c-0.01,10.62,2.56,20.15,9.34,27.68
			c5.79,6.43,13.35,8.22,21.48,8.21c65.38-0.09,130.77-0.1,196.15-0.01c13.8,0.02,22.05,13.08,18.99,26.33
			c-2.41,10.42-8.1,15.94-17.58,15.93c-66.98-0.09-133.96-0.17-200.93,0c-22.9,0.06-45.56-19.32-54.54-41.98
			c-5.09-12.86-6.99-26.03-6.96-39.88C721.74,326.34,721.67,270.23,721.67,214.12z"/>
		<path class="st0" d="M1130.02,213.77c0,57.68-0.03,115.37,0.01,173.05c0.02,24.33-7.91,45.08-24.15,61.26
			c-7.5,7.47-16.51,13.74-27.02,14.87c-10.01,1.08-20.15,1.29-30.21,1.08c-7.29-0.16-12.74-6.47-14.74-15.3
			c-1.93-8.51,1.05-18.06,7.11-22.33c4.01-2.82,8.16-5.09,13.25-4.47c3.33,0.41,6.74-0.1,10.09,0.11
			c19.86,1.24,31.54-14.06,31.59-34.97c0.1-42.63,0.03-85.25,0.03-127.88c0-71.76-0.12-143.53,0.09-215.29
			c0.05-16.89-5.74-29.46-19.66-36.65c-3.34-1.72-7.61-1.7-11.46-1.7c-63.44-0.1-126.89-0.06-190.33-0.07
			c-17.89,0-25.78-14.28-17.74-32.05c3.2-7.08,8.87-9.01,15.42-9.02c36.86-0.02,73.72-0.01,110.58-0.01
			c28.35,0,56.71,0.13,85.06-0.04c15.73-0.1,29.21,6.41,40.11,18.12c14.79,15.89,21.99,35.85,21.98,58.82
			C1130.01,98.8,1130.02,156.29,1130.02,213.77z"/>
		<path class="st0" d="M987.98,214.03c-13.86-8.78-26.79-16.94-39.69-25.15c-13.52-8.61-27.02-17.26-40.51-25.93
			c-11.5-7.4-22.96-14.87-34.46-22.28c-1.01-0.65-2.17-1.02-3.74-1.73c0,50.46,0,100.33,0,151.19c5.22-3.03,9.92-5.58,14.47-8.44
			c7.14-4.49,14.2-9.15,21.26-13.79c5.78-3.81,17.57,4.73,19.71,11.35c3.58,11.06,1.1,22.29-9.94,29.29
			c-10.92,6.93-21.72,14.11-32.56,21.21c-7.48,4.9-15.23,8.33-24.19,6.07c-12.85-3.25-22.79-16.11-22.92-31.15
			c-0.31-35.97-0.19-71.94-0.21-107.91c-0.02-23.66,0.05-47.31,0-70.97c-0.03-15.15,9.35-30.47,22.55-32.5
			c5.69-0.88,12.62-0.9,17.45,1.91c17.17,9.99,33.68,21.38,50.45,32.22c6.51,4.21,12.99,8.46,19.55,12.57
			c10.25,6.42,20.59,12.64,30.81,19.12c12.77,8.1,25.8,15.79,38.08,24.71c12.77,9.28,16.95,27.53,11.48,44.84
			c-2.57,8.11-7.82,13.53-13.87,17.66c-14.02,9.57-28.35,18.63-42.88,27.23c-3.59,2.13-8.6,2.89-12.65,2.19
			c-7.82-1.35-11.24-6.4-13.09-16.9c-1.49-8.45,2.76-17.22,9.15-21.37C963.8,229.96,975.33,222.33,987.98,214.03z"/>
	</g>
</g>
<g id="_x33_ScMsC.tif">
	<g>
		<path class="st1" d="M-493.99,108.54c2.78,0,5.56-0.02,8.34,0.01c3.14,0.03,5.74,2.39,6.33,5.78c0.42,2.44-0.21,4.65-1.45,6.65
			c-1.76,2.83-4.27,4.57-7.12,5.76c-1.1,0.46-2.26,0.78-3.4,1.11c-1.13,0.32-2.02-0.25-2.27-1.37c-0.23-1.07,0.4-2.02,1.54-2.29
			c2.22-0.53,4.31-1.39,6.18-2.84c1.46-1.14,2.66-2.52,3.12-4.51c0.48-2.12-0.44-3.98-2.2-4.44c-0.34-0.09-0.7-0.09-1.05-0.09
			c-5.49-0.01-10.98,0-16.47,0c-0.18,0-0.36,0.01-0.53-0.01c-0.97-0.11-1.63-0.92-1.59-1.97c0.03-1,0.74-1.76,1.71-1.77
			C-499.91,108.53-496.95,108.54-493.99,108.54C-493.99,108.54-493.99,108.54-493.99,108.54z"/>
		<path class="st1" d="M-498.12,128.52c-4.2-0.15-8.23-1.04-11.86-3.51c-2.3-1.57-4.14-3.6-5.07-6.48
			c-1.23-3.84,0.17-7.71,3.34-9.36c1.46-0.76,3-0.71,4.54-0.58c0.77,0.06,1.33,0.9,1.34,1.78c0.01,0.89-0.5,1.68-1.28,1.83
			c-0.53,0.1-1.1,0.12-1.64,0.08c-2.07-0.17-3.87,1.81-3.19,4.6c0.34,1.41,1.07,2.54,2.03,3.5c2.04,2.04,4.51,3.11,7.15,3.77
			c1.87,0.47,3.78,0.63,5.7,0.63c1.32,0,2.18,1.24,1.75,2.5c-0.25,0.74-0.74,1.18-1.47,1.23
			C-497.23,128.55-497.67,128.52-498.12,128.52z"/>
		<path class="st1" d="M-485.98,90.65c0.24,6.28-4.27,12.11-9.96,12.74c-1.18,0.13-2.4,0.01-3.59-0.12
			c-1.09-0.12-1.72-1.14-1.53-2.24c0.18-1.04,1.1-1.65,2.15-1.44c3.64,0.76,7.17-1.19,8.73-4.81c1.57-3.65,0.71-7.9-2.14-10.55
			c-0.97-0.9-1.06-2.22-0.21-3.03c0.63-0.6,1.51-0.63,2.2-0.03c2.25,1.98,3.64,4.54,4.15,7.67
			C-486.08,89.44-486.04,90.05-485.98,90.65z"/>
		<path class="st1" d="M-508.7,91.39c-0.23-6.19,4.12-11.93,9.69-12.73c0.72-0.1,1.45-0.13,2.17-0.12c0.99,0.01,1.74,0.86,1.72,1.89
			c-0.02,1.03-0.79,1.79-1.78,1.86c-0.95,0.07-1.93,0.09-2.83,0.39c-5.41,1.83-7.32,9.19-3.69,13.99c0.31,0.41,0.52,0.98,0.58,1.51
			c0.08,0.75-0.44,1.43-1.09,1.7c-0.68,0.27-1.36,0.09-1.88-0.55c-1.42-1.76-2.33-3.81-2.69-6.14
			C-508.6,92.6-508.64,91.99-508.7,91.39z"/>
	</g>
</g>
<path class="st1" d="M-325.37,100.27h-16.75V81.79c0-1.79-1.33-3.26-2.96-3.26s-2.96,1.47-2.96,3.26v18.48h-16.75
	c-1.63,0-2.96,1.47-2.96,3.26c0,1.79,1.33,3.26,2.96,3.26h16.75v18.48c0,1.79,1.33,3.26,2.96,3.26s2.96-1.47,2.96-3.26v-18.48h16.75
	c1.63,0,2.96-1.47,2.96-3.26C-322.41,101.74-323.74,100.27-325.37,100.27z"/>
<g id="clqg10.tif">
	<g>
		<path class="st1" d="M-166.72,343.78c-0.75-2.29-1.86-4.28-3.23-6.13c-0.74,0.35-1.44,0.71-2.17,1.04
			c-3.84,1.72-8.24-0.74-9.17-5.15c-0.2-0.97-0.28-1.98-0.38-2.97c-0.04-0.4-0.15-0.56-0.53-0.62c-2.39-0.42-4.75-0.26-7.1,0.3
			c-1.08,0.26-1.96-0.37-2.16-1.5c-0.18-1.03,0.46-1.93,1.5-2.19c3.32-0.83,6.63-0.8,9.95,0c0.92,0.22,1.42,0.8,1.54,1.84
			c0.15,1.32,0.3,2.65,0.45,3.97c0.27,2.33,2.61,3.75,4.67,2.81c1.03-0.47,2.05-1,3.07-1.49c0.81-0.39,1.52-0.25,2.09,0.45
			c2.29,2.8,4.07,5.94,5.05,9.58c0.32,1.17,0.12,1.81-0.8,2.53c-0.8,0.63-1.6,1.24-2.39,1.87c-1.94,1.55-1.93,4.64,0.02,6.16
			c0.81,0.63,1.63,1.26,2.44,1.91c0.84,0.67,1.05,1.35,0.75,2.46c-0.99,3.61-2.67,6.78-5,9.55c-0.63,0.75-1.32,0.91-2.17,0.51
			c-0.91-0.44-1.82-0.88-2.73-1.34c-1.14-0.59-2.26-0.6-3.38,0.07c-0.64,0.38-1.28,0.33-1.86-0.15c-0.56-0.47-0.76-1.12-0.64-1.88
			c0.1-0.63,0.45-1.05,0.95-1.34c1.93-1.1,3.91-1.22,5.92-0.32c0.69,0.31,1.36,0.66,2.09,1.01c1.4-1.84,2.47-3.87,3.21-6.15
			c-0.58-0.46-1.15-0.89-1.71-1.34c-3.61-2.89-3.71-8.92-0.18-11.95C-168.01,344.77-167.38,344.3-166.72,343.78z"/>
		<path class="st1" d="M-199.92,337.38c-1.35,1.79-2.4,3.73-3.11,5.89c-0.04,0.12,0.06,0.37,0.16,0.46c0.46,0.4,0.95,0.76,1.43,1.13
			c3.62,2.86,3.74,8.93,0.22,11.95c-0.6,0.52-1.24,0.99-1.85,1.48c0.17,1.29,1.91,4.64,3.2,6.17c0.61-0.3,1.24-0.61,1.87-0.91
			c3.97-1.89,8.49,0.5,9.43,5.02c0.19,0.91,0.23,1.86,0.31,2.8c0.03,0.38,0.17,0.51,0.52,0.57c2.35,0.42,4.68,0.25,7-0.3
			c1.13-0.27,2.01,0.33,2.22,1.48c0.19,1.04-0.45,1.95-1.53,2.22c-3.32,0.83-6.63,0.78-9.95-0.02c-0.88-0.21-1.39-0.83-1.49-1.82
			c-0.11-1.15-0.23-2.3-0.32-3.46c-0.21-2.52-2.52-4.07-4.65-3.1c-1.02,0.46-2.02,0.98-3.03,1.47c-0.94,0.46-1.61,0.29-2.29-0.55
			c-2.23-2.76-3.95-5.84-4.92-9.4c-0.33-1.21-0.13-1.85,0.81-2.58c0.78-0.61,1.56-1.23,2.35-1.84c2.01-1.55,1.88-4.94-0.01-6.21
			c-0.86-0.58-1.66-1.28-2.49-1.93c-0.74-0.59-0.98-1.3-0.72-2.26c1-3.72,2.72-6.98,5.13-9.79c0.56-0.66,1.27-0.79,2.05-0.42
			c0.96,0.46,1.92,0.93,2.88,1.41c1.08,0.54,2.13,0.5,3.19-0.08c0.98-0.54,1.97-0.23,2.42,0.75c0.44,0.96,0.11,2.04-0.84,2.58
			c-1.93,1.1-3.91,1.2-5.92,0.3C-198.54,338.07-199.22,337.72-199.92,337.38z"/>
		<path class="st1" d="M-175.88,351.08c-0.02,5.59-4.09,10.05-9.15,10.03c-5.04-0.03-9.07-4.51-9.06-10.07
			c0.01-5.57,4.11-10.07,9.15-10.03C-179.89,341.05-175.86,345.53-175.88,351.08z M-190.67,351c-0.02,3.5,2.48,6.3,5.65,6.33
			c3.14,0.02,5.69-2.73,5.72-6.19c0.03-3.51-2.46-6.33-5.62-6.36C-188.1,344.76-190.64,347.51-190.67,351z"/>
	</g>
</g>
<g id="WkqA4s.tif_00000181792078408866254750000010615194365443602308_">
	<g>
		<path class="st1" d="M-478.26,234.96c-1.21,0.45-2.37,0.92-3.55,1.3c-0.45,0.15-0.96,0.13-1.44,0.13c-1.95,0.01-3.91,0.02-5.86,0
			c-0.92-0.01-1.85-0.11-2.85-0.18c0,0.66,0,1.23,0,1.79c-0.01,1.43-0.7,2.2-2.01,2.2c-2.25,0-4.51,0.01-6.76,0
			c-1.26,0-1.95-0.78-1.96-2.19c0-0.55,0-1.11,0-1.75c-0.23,0-0.42,0-0.62,0c-2.68,0-5.36,0.01-8.04,0
			c-4.29-0.01-7.64-3.05-8.47-7.68c-0.11-0.6-0.16-1.22-0.17-1.83c-0.01-2.65,0-5.3,0.01-7.95c0.02-3.74,2.26-6.19,5.66-6.21
			c1.84-0.01,3.69,0,5.53,0c0.22,0,0.44,0,0.74,0c0-1.13-0.02-2.21,0-3.29c0.03-1.64,0.67-2.92,1.9-3.84
			c0.7-0.52,1.49-0.76,2.32-0.76c4.34-0.01,8.68-0.03,13.01,0.01c2.45,0.02,4.19,2.03,4.21,4.72c0.01,1.02,0,2.05,0,3.16
			c0.28,0,0.51,0,0.74,0c2.18,0.02,4.36-0.06,6.53,0.11c2.43,0.19,4.39,2.38,4.57,5.07c0.15,2.15,0.1,4.31,0.1,6.47
			c0,8.07-0.01,16.15-0.02,24.22c-0.01,3.75-2.24,6.23-5.63,6.24c-11.34,0.01-22.68,0.01-34.02,0c-3.4,0-5.64-2.47-5.66-6.21
			c-0.01-2.81-0.01-5.63,0-8.44c0.01-1.57,1.18-2.56,2.41-2.06c0.75,0.3,1.16,1.01,1.16,2.04c0,2.75,0,5.51,0,8.26
			c0,1.83,0.59,2.47,2.26,2.47c11.23,0,22.45,0,33.68,0c1.59,0,2.21-0.67,2.21-2.41c0-4.29,0-8.59,0-12.88
			C-478.26,235.24-478.26,235.04-478.26,234.96z M-491.97,232.31c0.99,0,1.9-0.01,2.81,0c2.16,0.03,4.31,0.15,6.47,0.08
			c2.32-0.08,4.31-2.32,4.37-4.89c0.07-2.98,0.07-5.95,0.06-8.93c0-1.27-0.7-2.03-1.86-2.04c-2.7-0.01-5.4,0-8.1,0.03
			c-1.14,0.01-1.95-0.8-1.96-2.07c0-1.58,0-3.16,0-4.74c0-0.95-0.14-1.11-1-1.11c-3.24,0-6.48,0-9.72,0c-0.93,0-1.86,0-2.79,0
			c-0.39,0-0.76,0.12-0.77,0.6c-0.04,1.1-0.01,2.2-0.01,3.34c1.34,0,2.6,0,3.86,0c1.28,0,2.57-0.02,3.85,0.01
			c1.07,0.03,1.81,0.88,1.8,2c-0.01,1.12-0.75,1.93-1.84,1.93c-3.18,0.02-6.37,0.04-9.55,0.04c-2.72,0-5.44-0.03-8.15-0.03
			c-1.21,0-1.9,0.77-1.9,2.12c-0.01,1.35,0.03,2.71,0.03,4.07c0,1.48,0,2.96-0.01,4.44c-0.01,2.68,2.11,5.08,4.66,5.13
			c2.92,0.06,5.85,0.02,8.77,0.02c0.07,0,0.14-0.02,0.26-0.05c0-0.63-0.01-1.24,0-1.85c0.02-1.16,0.72-2.01,1.77-2.03
			c2.38-0.04,4.77-0.03,7.15,0c1.09,0.01,1.78,0.86,1.8,2.07C-491.97,231.03-491.97,231.62-491.97,232.31z M-495.56,232.36
			c-1.21,0-2.37,0-3.52,0c0,1.31,0,2.58,0,3.85c1.19,0,2.35,0,3.52,0C-495.56,234.9-495.56,233.66-495.56,232.36z"/>
	</g>
</g>
<g id="_x31_tVIAV.tif_00000049193602889983677850000000748039462362122378_">
	<g>
		<path class="st1" d="M-345.11,243.56c1.5,0,3,0,4.5,0c0.9,0,1.26-0.39,1.27-1.4c0.01-1,0.01-2,0-3c-0.01-0.89,0.32-1.53,1.04-1.97
			c1.68-1.04,3.09-2.42,4.28-4.1c0.64-0.91,1.59-1.09,2.35-0.49c0.81,0.63,0.94,1.81,0.3,2.75c-1.18,1.7-2.56,3.15-4.19,4.31
			c-0.31,0.22-0.43,0.47-0.43,0.88c0,0.98,0.02,1.97-0.12,2.93c-0.19,1.29-0.87,2.3-1.87,3c-0.27,0.2-0.35,0.41-0.35,0.75
			c0,1.13,0.06,2.28-0.09,3.4c-0.31,2.34-2.05,3.98-4.2,4.04c-1.6,0.05-3.21,0.05-4.81,0c-2.39-0.07-4.23-2.16-4.29-4.79
			c-0.02-0.88,0.01-1.77-0.02-2.66c-0.01-0.18-0.13-0.43-0.27-0.53c-1.55-1.02-2.28-2.54-2.29-4.5c0-0.71,0.18-1.53-0.07-2.1
			c-0.25-0.57-0.96-0.89-1.46-1.33c-6.34-5.55-8.32-15.3-4.7-23.21c0.4-0.87,1.06-1.26,1.87-1.1c0.71,0.14,1.31,0.8,1.32,1.63
			c0.01,0.45-0.15,0.94-0.32,1.37c-2.06,5.19-1.76,10.18,1.02,14.95c1.16,1.99,2.71,3.57,4.58,4.73c0.77,0.48,1.14,1.13,1.11,2.1
			c-0.03,0.98-0.01,1.96,0,2.94c0.01,1,0.38,1.39,1.28,1.39C-348.15,243.56-346.63,243.56-345.11,243.56z M-348.37,247.34
			c0,0.88-0.02,1.68,0.01,2.48c0.02,0.64,0.42,1.11,0.99,1.12c1.57,0.03,3.14,0.02,4.7,0c0.51-0.01,0.93-0.41,0.96-0.95
			c0.05-0.87,0.01-1.75,0.01-2.66C-343.93,247.34-346.12,247.34-348.37,247.34z"/>
		<path class="st1" d="M-345.11,204.69c8.45-0.04,15.81,6.92,17.05,16.13c0.29,2.12,0.34,4.25-0.02,6.37
			c-0.19,1.15-1.04,1.78-2.01,1.57c-0.91-0.2-1.41-1.17-1.26-2.29c1.23-9.11-4.2-16.32-11.07-17.79c-3.74-0.8-7.19,0.08-10.4,2.27
			c-0.15,0.1-0.29,0.21-0.44,0.31c-0.85,0.55-1.83,0.32-2.33-0.57c-0.49-0.86-0.28-1.95,0.52-2.53
			C-352.05,205.95-348.75,204.72-345.11,204.69z"/>
	</g>
</g>
<g id="abIp8T.tif_00000150075571670114033020000016216490413598851245_">
	<g>
		<path class="st1" d="M-170.21,208.5c-1.15,0-2.22,0-3.39,0c0,0.22,0,0.45,0,0.67c0,3.92,0,7.84,0,11.76c0,1.45-0.5,2.59-1.75,3.18
			c-0.89,0.42-1.76,0.3-2.59-0.24c-0.67-0.44-1.34-0.87-1.99-1.33c-0.32-0.23-0.57-0.25-0.9-0.01c-0.63,0.46-1.29,0.88-1.95,1.3
			c-2.07,1.34-4.37-0.06-4.38-2.71c-0.03-3.96-0.01-7.92-0.01-11.88c0-0.23,0-0.46,0-0.75c-0.23-0.01-0.42-0.03-0.61-0.03
			c-3.31,0-6.61,0-9.92,0c-1.33,0-1.93,0.67-1.94,2.15c0,1.62,0,3.24,0,4.86c0,1.26-0.68,2.09-1.69,2.09c-1,0-1.7-0.86-1.7-2.1
			c0.01-1.95-0.06-3.91,0.08-5.85c0.19-2.73,2.26-4.81,4.75-4.88c2-0.06,3.99-0.02,5.99-0.02c5.32-0.01,10.64-0.03,15.96-0.04
			c2.14,0,4.28,0.02,6.42,0.04c1.89,0.02,3.02,1.22,3.02,3.31c0.01,9.58,0.01,19.15,0,28.73c0,1.2-0.72,2.04-1.7,2.04
			c-1,0-1.69-0.85-1.69-2.1c0-9.13,0-18.26,0-27.38C-170.21,209.07-170.21,208.82-170.21,208.5z M-177.04,220.11
			c0-3.93,0-7.75,0-11.58c-2.26,0-4.48,0-6.71,0c0,3.86,0,7.68,0,11.57c0.62-0.41,1.18-0.76,1.73-1.14c1.08-0.76,2.15-0.75,3.24,0
			C-178.23,219.34-177.67,219.7-177.04,220.11z"/>
		<path class="st1" d="M-199.65,243.6c3.44-0.39,6.83-0.16,10.22-0.18c6.63-0.04,13.26-0.01,19.89-0.01c0.32,0,0.64-0.02,0.95-0.02
			c1.02,0.01,1.79,0.83,1.79,1.95c0,2.01,0.01,4.02-0.02,6.03c-0.03,2.05-1.13,3.27-2.99,3.28c-3.11,0.02-6.22,0-9.33,0.01
			c-6.12,0.01-12.23,0.02-18.35,0.04c-1.26,0-2.45-0.25-3.49-1.1c-1.34-1.1-2.06-2.59-2.06-4.4c-0.03-8.54-0.01-17.08,0.01-25.62
			c0-1.19,0.74-2,1.74-1.98c0.98,0.02,1.64,0.81,1.65,2.01c0,6.45,0,12.91,0,19.36C-199.65,243.19-199.65,243.41-199.65,243.6z
			 M-170.24,247.15c-0.24,0-0.43,0-0.62,0c-1.41,0-2.83,0-4.24,0c-7.55,0-15.09,0-22.64,0c-1.2,0-1.87,0.69-1.87,1.86
			c0.01,1.2,0.67,1.86,1.85,1.86c8.96,0.01,17.92,0.02,26.88,0.02c0.2,0,0.41,0,0.64,0C-170.24,249.62-170.24,248.44-170.24,247.15z
			"/>
	</g>
</g>
<g id="K9ZBK4.tif_00000094586419315865884660000017626625463301435270_">
	<g>
		<path class="st1" d="M-517.75,350.91c0-5.75,0-11.5,0-17.24c0-2.3,0.7-4.3,2.18-5.89c0.97-1.05,2.17-1.75,3.58-1.81
			c0.65-0.03,1.31-0.04,1.97-0.01c1.14,0.06,1.9,1.45,1.52,2.72c-0.29,0.95-0.82,1.37-1.74,1.38c-0.28,0-0.57,0.02-0.85,0
			c-1.91-0.16-3.25,1.64-3.24,3.58c0.02,5.53,0.01,11.07,0.01,16.6c0,5.96,0,11.93,0,17.89c0,1.06,0.26,2.01,0.93,2.77
			c0.58,0.64,1.34,0.82,2.15,0.82c6.54-0.01,13.08-0.01,19.61,0c1.38,0,2.21,1.31,1.9,2.63c-0.24,1.04-0.81,1.59-1.76,1.59
			c-6.7-0.01-13.4-0.02-20.09,0c-2.29,0.01-4.56-1.93-5.45-4.2c-0.51-1.29-0.7-2.6-0.7-3.99
			C-517.74,362.14-517.75,356.53-517.75,350.91z"/>
		<path class="st1" d="M-476.91,350.88c0,5.77,0,11.54,0,17.31c0,2.43-0.79,4.51-2.41,6.13c-0.75,0.75-1.65,1.37-2.7,1.49
			c-1,0.11-2.01,0.13-3.02,0.11c-0.73-0.02-1.27-0.65-1.47-1.53c-0.19-0.85,0.1-1.81,0.71-2.23c0.4-0.28,0.82-0.51,1.33-0.45
			c0.33,0.04,0.67-0.01,1.01,0.01c1.99,0.12,3.15-1.41,3.16-3.5c0.01-4.26,0-8.53,0-12.79c0-7.18-0.01-14.35,0.01-21.53
			c0-1.69-0.57-2.95-1.97-3.66c-0.33-0.17-0.76-0.17-1.15-0.17c-6.34-0.01-12.69-0.01-19.03-0.01c-1.79,0-2.58-1.43-1.77-3.2
			c0.32-0.71,0.89-0.9,1.54-0.9c3.69,0,7.37,0,11.06,0c2.84,0,5.67,0.01,8.51,0c1.57-0.01,2.92,0.64,4.01,1.81
			c1.48,1.59,2.2,3.59,2.2,5.88C-476.92,339.38-476.91,345.13-476.91,350.88z"/>
		<path class="st1" d="M-491.12,350.9c-1.39-0.88-2.68-1.69-3.97-2.52c-1.35-0.86-2.7-1.73-4.05-2.59c-1.15-0.74-2.3-1.49-3.45-2.23
			c-0.1-0.07-0.22-0.1-0.37-0.17c0,5.05,0,10.03,0,15.12c0.52-0.3,0.99-0.56,1.45-0.84c0.71-0.45,1.42-0.91,2.13-1.38
			c0.58-0.38,1.76,0.47,1.97,1.14c0.36,1.11,0.11,2.23-0.99,2.93c-1.09,0.69-2.17,1.41-3.26,2.12c-0.75,0.49-1.52,0.83-2.42,0.61
			c-1.29-0.33-2.28-1.61-2.29-3.12c-0.03-3.6-0.02-7.19-0.02-10.79c0-2.37,0-4.73,0-7.1c0-1.52,0.93-3.05,2.25-3.25
			c0.57-0.09,1.26-0.09,1.74,0.19c1.72,1,3.37,2.14,5.05,3.22c0.65,0.42,1.3,0.85,1.96,1.26c1.02,0.64,2.06,1.26,3.08,1.91
			c1.28,0.81,2.58,1.58,3.81,2.47c1.28,0.93,1.69,2.75,1.15,4.48c-0.26,0.81-0.78,1.35-1.39,1.77c-1.4,0.96-2.84,1.86-4.29,2.72
			c-0.36,0.21-0.86,0.29-1.27,0.22c-0.78-0.14-1.12-0.64-1.31-1.69c-0.15-0.85,0.28-1.72,0.91-2.14
			C-493.54,352.5-492.38,351.74-491.12,350.9z"/>
	</g>
</g>
<g id="c4m5PF.tif">
	<g>
		<path class="st1" d="M-184.91,97.96c2.18,0,4.37-0.01,6.55,0c2.91,0.01,4.75,2.04,4.76,5.25c0,4.21,0,8.42,0,12.63
			c0,2.21-0.47,4.29-1.39,6.25c-0.56,1.19-1.63,1.63-2.61,1.08c-0.98-0.55-1.3-1.76-0.75-2.95c0.68-1.48,0.99-3.04,0.98-4.7
			c-0.02-4.1-0.01-8.2-0.01-12.3c0-0.87-0.18-1.08-0.96-1.08c-4.39,0-8.77,0-13.16,0c-0.8,0-0.98,0.2-0.98,1.06
			c0,4.25-0.01,8.51,0,12.76c0.01,4.59,3.27,8.28,7.42,8.42c1.2,0.04,2.03,0.91,2.01,2.13c-0.02,1.21-0.88,2.05-2.08,2.04
			c-5.91-0.05-11.03-5.58-11.12-12.09c-0.06-4.56-0.03-9.11-0.01-13.67c0.01-2.7,1.96-4.76,4.5-4.8
			C-189.48,97.94-187.2,97.96-184.91,97.96z"/>
		<path class="st1" d="M-210.11,108.02c0-1.8-0.01-3.6,0-5.4c0.02-2.79,1.69-4.64,4.22-4.66c1.87-0.01,3.74-0.01,5.6,0
			c0.97,0.01,1.66,0.57,1.91,1.5c0.23,0.86-0.03,1.82-0.74,2.27c-0.37,0.24-0.85,0.36-1.28,0.37c-1.79,0.04-3.58,0.03-5.37,0.01
			c-0.42,0-0.59,0.12-0.59,0.62c0.02,3.6-0.02,7.2,0.03,10.8c0.04,2.9,1.8,5.44,4.2,6.18c0.62,0.19,1.27,0.27,1.91,0.33
			c1.11,0.09,1.92,0.95,1.91,2.11c-0.01,1.19-0.87,2.07-2.01,2.06c-5.33-0.03-9.64-4.66-9.79-10.55c-0.05-1.89-0.01-3.77-0.01-5.66
			C-210.1,108.02-210.1,108.02-210.11,108.02z"/>
		<path class="st1" d="M-159.78,108.23c0,1.91,0.09,3.83-0.02,5.73c-0.27,4.47-2.28,7.66-6.03,9.45c-1.19,0.57-2.46,0.76-3.75,0.69
			c-1.1-0.06-1.92-0.99-1.89-2.14c0.03-1.16,0.87-2.07,1.98-2.02c3.44,0.17,5.96-3.02,5.95-6.51c-0.01-3.54-0.01-7.07,0.01-10.61
			c0-0.55-0.16-0.71-0.65-0.7c-1.77,0.02-3.54,0.01-5.31,0.01c-1.26,0-2.11-0.86-2.1-2.08c0.01-1.23,0.86-2.08,2.12-2.08
			c1.83-0.01,3.66-0.01,5.49,0c2.53,0.02,4.2,1.87,4.22,4.67c0.01,0.93,0,1.87,0,2.8c0,0.93,0,1.87,0,2.8
			C-159.77,108.23-159.78,108.23-159.78,108.23z"/>
		<path class="st1" d="M-201.54,96.16c-3.69,0.02-6.67-3.27-6.68-7.35c0-4.07,3-7.38,6.67-7.37c3.66,0.02,6.63,3.29,6.67,7.33
			C-194.84,92.81-197.85,96.14-201.54,96.16z M-204.44,88.79c-0.01,1.77,1.25,3.18,2.85,3.2c1.62,0.01,2.94-1.44,2.93-3.2
			c-0.01-1.74-1.32-3.17-2.9-3.17C-203.15,85.61-204.43,87.03-204.44,88.79z"/>
		<path class="st1" d="M-161.53,88.84c-0.02,4.08-3.02,7.36-6.7,7.32c-3.67-0.04-6.63-3.32-6.63-7.35c0-4.04,3.03-7.38,6.69-7.36
			C-164.48,81.46-161.52,84.77-161.53,88.84z M-165.31,88.79c-0.01-1.76-1.29-3.18-2.88-3.18c-1.58,0-2.89,1.43-2.9,3.18
			c-0.02,1.76,1.31,3.22,2.93,3.2C-166.56,91.98-165.3,90.57-165.31,88.79z"/>
		<path class="st1" d="M-177.39,86.89c-0.02,4.35-3.07,7.97-6.97,8.28c-3.98,0.31-7.47-2.75-8.03-7.08
			c-0.05-0.39-0.09-0.78-0.09-1.16c-0.01-1.21,0.81-2.14,1.86-2.16c1.03-0.01,1.85,0.86,1.91,2.04c0.11,1.99,1,3.41,2.55,3.97
			c1.5,0.54,2.86,0.21,3.95-1.05c1.11-1.28,1.36-2.83,0.76-4.46c-0.59-1.62-1.75-2.46-3.33-2.57c-1.26-0.09-2.08-0.93-2.04-2.16
			c0.04-1.23,0.93-2.05,2.17-2C-180.6,78.68-177.36,82.4-177.39,86.89z"/>
	</g>
</g>
<g id="MK0EZQ.tif">
	<g>
		<path class="st1" d="M-317.09,350.93c0,5.54,0,11.07,0,16.61c0,4.87-3.17,8.37-7.6,8.38c-2.17,0.01-4.33,0.01-6.5-0.01
			c-0.9-0.01-1.62-0.65-1.86-1.55c-0.24-0.87,0.03-1.92,0.74-2.38c0.42-0.28,0.97-0.44,1.46-0.45c2.04-0.05,4.08-0.02,6.12-0.02
			c2.31,0,3.63-1.47,3.63-4.03c0-11,0-22.01,0-33.01c0-2.66-1.3-4.1-3.69-4.1c-8.06,0-16.12,0-24.18,0c-0.25,0-0.5,0.01-0.75-0.03
			c-1.12-0.17-1.84-1.12-1.78-2.33c0.06-1.16,0.86-2.04,1.97-2.04c3.14-0.02,6.29-0.01,9.44-0.01c5.1,0,10.21,0.08,15.31-0.03
			c4.31-0.09,7.79,3.75,7.7,8.53C-317.17,339.95-317.09,345.44-317.09,350.93z"/>
		<path class="st1" d="M-369.08,350.98c0,5.51,0,11.02,0,16.54c0,2.54,1.33,4,3.65,4c8.45,0,16.91,0,25.36,0
			c1.47,0,2.38,0.89,2.35,2.28c-0.02,1.11-0.78,2.02-1.79,2.11c-0.43,0.04-0.87,0.02-1.31,0.02c-8.25,0-16.49,0.01-24.74,0
			c-3.65,0-6.54-2.5-7.35-6.33c-0.13-0.6-0.18-1.23-0.18-1.84c-0.01-11.21-0.01-22.42,0-33.62c0-4.53,3.19-8.09,7.29-8.17
			c1.23-0.02,2.46-0.01,3.69,0c1.3,0.01,2.16,0.9,2.16,2.2c0,1.29-0.88,2.19-2.17,2.21c-1.17,0.02-2.33,0-3.5,0.01
			c-2.11,0.02-3.47,1.53-3.47,3.86C-369.09,339.82-369.08,345.4-369.08,350.98z"/>
		<path class="st1" d="M-334.38,347.92c-1.07-0.19-2.07-0.38-3.06-0.55c-0.88-0.15-1.77-0.29-2.65-0.45
			c-1.19-0.22-2.06-0.92-2.61-2.11c-0.67-1.45-1.34-2.9-2.01-4.35c-0.09-0.2-0.2-0.39-0.36-0.7c-0.17,0.36-0.3,0.61-0.42,0.86
			c-0.62,1.35-1.25,2.69-1.87,4.05c-0.59,1.31-1.54,2.06-2.86,2.28c-1.65,0.27-3.29,0.56-4.93,0.84c-0.18,0.03-0.36,0.09-0.65,0.17
			c0.19,0.24,0.33,0.42,0.48,0.59c1.13,1.25,2.26,2.51,3.4,3.75c0.82,0.89,1.12,1.96,0.98,3.2c-0.12,1.06-0.88,1.86-1.83,1.93
			c-0.97,0.07-1.78-0.6-2.08-1.61c-0.11-0.39-0.31-0.8-0.57-1.09c-0.96-1.11-1.96-2.19-2.95-3.27c-1.26-1.37-1.57-3.01-1.03-4.81
			c0.54-1.81,1.7-2.88,3.44-3.16c1.54-0.24,3.09-0.52,4.62-0.82c0.23-0.05,0.51-0.29,0.63-0.53c0.63-1.29,1.23-2.6,1.82-3.92
			c0.79-1.74,2.08-2.58,3.82-2.58c1.74,0,3.02,0.88,3.81,2.6c0.6,1.31,1.18,2.63,1.82,3.92c0.11,0.23,0.4,0.46,0.64,0.5
			c1.6,0.31,3.21,0.56,4.81,0.85c3.08,0.57,4.53,4.77,2.6,7.46c-0.77,1.07-1.96,1.3-2.87,0.57c-0.92-0.75-1.07-2.03-0.37-3.17
			C-334.56,348.26-334.5,348.14-334.38,347.92z"/>
		<path class="st1" d="M-351.81,362.05c0.58-0.32,1.06-0.59,1.53-0.86c1.16-0.66,2.33-1.32,3.49-2c1.16-0.68,2.3-0.68,3.46,0
			c1.59,0.94,3.19,1.86,4.95,2.87c-0.13-1.04-0.24-1.93-0.36-2.82c-0.17-1.25-0.36-2.49-0.53-3.74c-0.15-1.14,0.54-2.23,1.56-2.46
			c1.04-0.24,2.15,0.46,2.34,1.62c0.37,2.3,0.77,4.61,0.94,6.94c0.25,3.49-3.08,5.83-5.95,4.27c-1.4-0.76-2.77-1.58-4.14-2.41
			c-0.4-0.24-0.69-0.23-1.08,0c-1.35,0.81-2.71,1.61-4.09,2.35c-2.59,1.39-5.66-0.39-6.05-3.53c-0.08-0.62,0-1.29,0.14-1.9
			c0.25-1.15,1.26-1.8,2.31-1.58c0.98,0.2,1.68,1.25,1.59,2.38C-351.75,361.44-351.78,361.68-351.81,362.05z"/>
	</g>
</g>
</svg>
