<?xml version="1.0" encoding="utf-8"?>
<!-- Generator: Adobe Illustrator 27.9.0, SVG Export Plug-In . SVG Version: 6.00 Build 0)  -->
<svg version="1.1" id="Layer_1" xmlns="http://www.w3.org/2000/svg" xmlns:xlink="http://www.w3.org/1999/xlink" x="0px" y="0px"
	 viewBox="0 0 500 500" style="enable-background:new 0 0 500 500;" xml:space="preserve">
<style type="text/css">
	.st0{fill:#F37321;}
	.st1{fill:#35424C;}
</style>
<g id="_x31_1PI5U.tif_00000034769464616919198810000014275178009390099855_">
	<g>
		<path class="st0" d="M887.58,575.89c-38.46-0.01-76.92,0.09-115.37-0.05c-20.2-0.07-36.33-14.74-40.82-36.44
			c-0.78-3.79-0.69-7.59-0.69-11.4c-0.02-76.4,0.03-152.8-0.03-229.2c-0.03-30.88,10.71-56.28,31.92-76.13
			c13.89-13,28.3-25.32,42.49-37.94c5.3-4.71,11.21-6.76,17.85-4.26c6.54,2.46,10.84,7.55,12.13,15.02
			c1.37,7.92-0.98,14.72-6.73,19.85c-13.31,11.9-26.56,23.88-40.03,35.55c-14.83,12.85-21.82,29.69-21.83,50.26
			c-0.02,74.19-0.01,148.37,0,222.56c0,10.77,0.96,11.87,10.51,11.87c67.07,0.01,134.15,0.01,201.22,0.01
			c7.54,0,7.56-0.01,7.56-8.37c0-45.44,0-90.87,0-136.31c0-8.04-0.01-8.06-7.22-8.06c-25.52-0.01-51.04,0.14-76.55-0.12
			c-5.27-0.05-6.88,1.74-6.83,7.54c0.22,28.75,0.11,57.5,0.08,86.25c0,2.4-0.01,4.85-0.38,7.21c-1.72,10.99-9.62,18.05-19.19,17.33
			c-9.48-0.71-16.81-9.06-16.85-20.07c-0.14-35.38-0.28-70.77,0.07-106.15c0.18-18.66,12.54-31.82,30.62-32.09
			c34.08-0.49,68.17-0.57,102.25,0.04c19.18,0.34,30.49,14.12,30.52,35.32c0.08,53.48,0.03,106.96,0.03,160.44
			c0,4.82,0.15,9.59,0.81,14.41c1.74,12.8-7.04,22.98-19.61,22.99c-37.55,0.02-75.09-0.03-112.64-0.05
			C889.76,575.9,888.67,575.9,887.58,575.89z"/>
		<path class="st0" d="M1151.45,411.23c0.01,39.2,0.04,78.41,0,117.61c-0.03,27.45-17.77,46.91-42.8,47.04
			c-12.58,0.06-25.15,0.07-37.73-0.01c-11.29-0.07-19.48-8.34-19.61-19.6c-0.14-11.41,7.55-20.13,18.89-20.52
			c12.2-0.41,24.42-0.1,36.63-0.16c7.12-0.03,8.82-1.8,8.83-9.5c0.03-75.59,0.1-151.18-0.04-226.78
			c-0.04-19.82-7.02-35.86-21.58-48.37c-49.32-42.36-98.36-85.12-147.37-127.91c-4.12-3.6-6.79-3.98-11.05-0.16
			c-14.27,12.82-28.79,25.3-43.45,37.58c-11.55,9.68-26.47,3.83-29.46-11.33c-1.54-7.8,0.9-14.5,6.42-19.33
			c18.27-16,36.6-31.92,55.15-47.51c10.86-9.13,23.84-8.35,35.87,1.85c16.04,13.59,31.86,27.51,47.75,41.31
			c37.51,32.58,75.18,64.95,112.46,97.86c20.4,18.01,30.65,42.21,30.98,70.9C1151.78,333.22,1151.45,372.23,1151.45,411.23z"/>
	</g>
</g>
<g id="WkqA4s.tif_00000142157768412090583420000011672097706337877665_">
	<g>
		<path class="st0" d="M1131.78,307.39c-12.09,4.48-23.69,9.15-35.53,12.96c-4.54,1.46-9.59,1.26-14.41,1.29
			c-19.55,0.13-39.1,0.24-58.65-0.03c-9.24-0.13-18.46-1.11-28.54-1.77c0,6.63,0.02,12.29,0,17.95
			c-0.06,14.32-6.99,21.97-20.07,21.99c-22.53,0.05-45.06,0.06-67.58-0.01c-12.62-0.04-19.53-7.85-19.6-21.89
			c-0.03-5.54,0-11.07,0-17.53c-2.27,0-4.24,0-6.21,0c-26.81,0-53.62,0.07-80.43-0.02c-42.91-0.15-76.42-30.45-84.75-76.76
			c-1.08-6-1.63-12.22-1.65-18.34c-0.11-26.5,0-53,0.15-79.49c0.21-37.4,22.56-61.89,56.6-62.06c18.43-0.09,36.86-0.01,55.3-0.01
			c2.21,0,4.42,0,7.36,0c0-11.27-0.15-22.09,0.04-32.9c0.29-16.37,6.74-29.2,18.99-38.38c6.97-5.22,14.87-7.55,23.22-7.57
			c43.38-0.07,86.76-0.31,130.14,0.08c24.49,0.22,41.94,20.29,42.12,47.22c0.07,10.23,0.01,20.47,0.01,31.55c2.76,0,5.1-0.02,7.44,0
			c21.77,0.25,43.62-0.63,65.3,1.06c24.33,1.89,43.85,23.76,45.68,50.68c1.46,21.46,1.02,43.09,1.03,64.65
			c0.03,80.73-0.05,161.46-0.19,242.19c-0.07,37.53-22.4,62.35-56.3,62.37c-113.39,0.09-226.77,0.09-340.16,0.01
			c-34.01-0.02-56.42-24.74-56.56-62.1c-0.11-28.14-0.11-56.29,0-84.43c0.06-15.71,11.81-25.62,24.12-20.63
			c7.47,3.03,11.59,10.09,11.6,20.39c0.05,27.53,0.02,55.05,0.01,82.58c0,18.27,5.91,24.74,22.63,24.74
			c112.27,0,224.53,0,336.8,0.01c15.95,0,22.08-6.69,22.09-24.12c0.01-42.93,0-85.87,0-128.8
			C1131.78,310.25,1131.78,308.23,1131.78,307.39z M994.65,280.95c9.85,0,18.95-0.1,28.05,0.02c21.56,0.28,43.15,1.51,64.68,0.78
			c23.22-0.78,43.07-23.24,43.71-48.86c0.74-29.76,0.66-59.55,0.6-89.32c-0.02-12.75-7.04-20.33-18.62-20.38
			c-26.99-0.12-53.98-0.03-80.97,0.26c-11.44,0.12-19.55-8.04-19.58-20.66c-0.03-15.82-0.01-31.63-0.02-47.45
			c0-9.5-1.44-11.12-9.98-11.12c-32.39-0.01-64.79,0-97.18,0c-9.31,0-18.62,0.02-27.92-0.01c-3.93-0.01-7.56,1.22-7.73,6.03
			c-0.37,11-0.12,22.02-0.12,33.41c13.35,0,25.99,0,38.63,0c12.85,0,25.7-0.25,38.53,0.1c10.73,0.29,18.06,8.77,17.97,19.96
			c-0.09,11.21-7.54,19.27-18.39,19.35c-31.83,0.23-63.66,0.37-95.49,0.38c-27.18,0.01-54.35-0.33-81.53-0.27
			c-12.12,0.02-18.95,7.75-19.01,21.22c-0.06,13.55,0.29,27.1,0.33,40.65c0.05,14.79-0.02,29.58-0.09,44.36
			c-0.13,26.82,21.12,50.76,46.59,51.25c29.22,0.57,58.45,0.17,87.68,0.17c0.7,0,1.39-0.25,2.59-0.48c0-6.27-0.09-12.39,0.02-18.5
			c0.2-11.64,7.16-20.12,17.75-20.28c23.82-0.35,47.66-0.34,71.48-0.02c10.86,0.15,17.82,8.64,17.98,20.66
			C994.72,268.15,994.65,274.08,994.65,280.95z M958.73,281.4c-12.11,0-23.7,0-35.24,0c0,13.14,0,25.78,0,38.46
			c11.92,0,23.5,0,35.24,0C958.73,306.88,958.73,294.39,958.73,281.4z"/>
	</g>
</g>
<g id="_x31_tVIAV.tif_00000173841354968616753690000017150618454224579487_">
	<g>
		<path class="st0" d="M893.85,379.93c15,0,30,0.01,45-0.01c9.02-0.01,12.58-3.9,12.66-13.98c0.08-10.01,0.11-20.02,0-30.02
			c-0.1-8.92,3.19-15.31,10.36-19.75c16.79-10.38,30.93-24.2,42.76-40.97c6.41-9.08,15.86-10.88,23.51-4.94
			c8.12,6.3,9.43,18.12,2.97,27.46c-11.75,16.96-25.61,31.48-41.86,43.11c-3.14,2.25-4.33,4.65-4.34,8.81
			c-0.02,9.78,0.17,19.7-1.21,29.31c-1.85,12.93-8.69,22.96-18.66,30.04c-2.75,1.95-3.45,4.05-3.47,7.45
			c-0.04,11.33,0.57,22.83-0.89,33.97c-3.07,23.36-20.5,39.83-41.99,40.43c-16.04,0.45-32.1,0.48-48.13,0
			c-23.91-0.72-42.34-21.56-42.85-47.91c-0.17-8.85,0.1-17.71-0.18-26.55c-0.06-1.82-1.3-4.34-2.68-5.26
			c-15.45-10.23-22.77-25.36-22.89-45.02c-0.04-7.11,1.82-15.29-0.74-21.04c-2.53-5.69-9.61-8.87-14.62-13.25
			c-63.43-55.49-83.16-152.98-46.97-232.06c4-8.73,10.59-12.6,18.75-10.99c7.11,1.4,13.08,8.02,13.21,16.35
			c0.07,4.55-1.51,9.38-3.21,13.66c-20.59,51.88-17.64,101.82,10.25,149.5c11.62,19.87,27.08,35.65,45.78,47.29
			c7.66,4.76,11.41,11.26,11.12,21.01c-0.29,9.8-0.14,19.63-0.03,29.44c0.11,10,3.77,13.88,12.82,13.89
			C863.5,379.94,878.67,379.93,893.85,379.93z M861.21,417.77c0,8.75-0.18,16.81,0.06,24.85c0.19,6.4,4.17,11.14,9.88,11.24
			c15.67,0.26,31.36,0.23,47.03,0.02c5.11-0.07,9.34-4.06,9.65-9.55c0.49-8.74,0.13-17.55,0.13-26.56
			C905.6,417.77,883.71,417.77,861.21,417.77z"/>
		<path class="st0" d="M893.89-8.8c84.48-0.37,158.07,69.22,170.54,161.35c2.87,21.24,3.36,42.54-0.2,63.74
			c-1.93,11.5-10.35,17.8-20.15,15.7c-9.14-1.96-14.14-11.66-12.61-22.93c12.32-91.06-42.04-163.2-110.73-177.94
			c-37.43-8.03-71.92,0.82-104.03,22.73c-1.48,1.01-2.92,2.09-4.42,3.07c-8.53,5.55-18.33,3.16-23.33-5.65
			c-4.88-8.61-2.77-19.5,5.24-25.35C824.41,3.85,857.45-8.43,893.89-8.8z"/>
	</g>
</g>
<g id="abIp8T.tif_00000044873386704249577680000002081873383934384809_">
	<g>
		<path class="st0" d="M1061.19,572.43c-11.48,0-22.23,0-33.92,0c0,2.25,0,4.48,0,6.71c0,39.2,0.01,78.4,0,117.61
			c0,14.53-5.05,25.86-17.54,31.85c-8.87,4.25-17.63,3.02-25.89-2.38c-6.69-4.36-13.43-8.65-19.94-13.32
			c-3.21-2.31-5.71-2.54-9.03-0.1c-6.32,4.64-12.93,8.78-19.48,13.02c-20.68,13.37-43.66-0.63-43.85-27.08
			c-0.27-39.59-0.08-79.18-0.08-118.78c0-2.3,0-4.6,0-7.46c-2.34-0.13-4.21-0.31-6.08-0.31c-33.06-0.02-66.12-0.03-99.18,0
			c-13.32,0.01-19.33,6.72-19.36,21.55c-0.03,16.19,0.03,32.38-0.03,48.56c-0.04,12.58-6.84,20.91-16.92,20.88
			c-9.96-0.03-17.03-8.55-16.99-20.97c0.07-19.49-0.59-39.07,0.78-58.46c1.94-27.34,22.63-48.12,47.48-48.81
			c19.96-0.55,39.95-0.19,59.93-0.24c53.21-0.14,106.42-0.33,159.62-0.39c21.39-0.02,42.77,0.19,64.16,0.41
			c18.9,0.19,30.2,12.24,30.23,33.06c0.13,95.76,0.08,191.52,0.03,287.28c-0.01,11.98-7.23,20.4-17.02,20.4
			c-9.96,0-16.9-8.51-16.91-20.96c-0.02-91.28-0.02-182.55-0.02-273.83C1061.19,578.16,1061.19,575.65,1061.19,572.43z
			 M992.89,688.52c0-39.28,0-77.53,0-115.79c-22.6,0-44.79,0-67.05,0c0,38.56,0,76.77,0,115.72c6.16-4.06,11.81-7.6,17.29-11.42
			c10.82-7.56,21.53-7.48,32.36-0.02C981,680.81,986.64,684.4,992.89,688.52z"/>
		<path class="st0" d="M766.83,923.45c34.39-3.93,68.31-1.64,102.16-1.84c66.29-0.4,132.58-0.11,198.86-0.12
			c3.18,0,6.36-0.2,9.54-0.18c10.17,0.05,17.89,8.31,17.92,19.47c0.04,20.09,0.07,40.17-0.2,60.26
			c-0.27,20.52-11.35,32.69-29.92,32.79c-31.11,0.17-62.22,0-93.33,0.06c-61.16,0.11-122.31,0.25-183.47,0.43
			c-12.63,0.04-24.53-2.46-34.93-11.01c-13.38-10.98-20.56-25.94-20.61-44c-0.25-85.41-0.06-170.83,0.07-256.24
			c0.02-11.92,7.41-19.98,17.43-19.77c9.81,0.21,16.44,8.14,16.45,20.1c0.05,64.55,0.02,129.1,0.03,193.65
			C766.83,919.3,766.83,921.58,766.83,923.45z M1060.94,958.96c-2.4,0-4.3,0-6.2,0c-14.14,0-28.28,0-42.42,0
			c-75.47,0-150.94-0.02-226.41,0.02c-11.96,0.01-18.73,6.87-18.66,18.57c0.08,11.97,6.65,18.61,18.49,18.62
			c89.61,0.08,179.22,0.15,268.83,0.23c2.04,0,4.08,0,6.37,0C1060.94,983.68,1060.94,971.85,1060.94,958.96z"/>
	</g>
</g>
<g id="K9ZBK4.tif_00000100361373223662792930000014932470307489080507_">
	<g>
		<path class="st0" d="M721.67,214.12c0-57.48,0.04-114.96-0.02-172.44c-0.03-22.96,7.03-42.96,21.75-58.92
			c9.69-10.52,21.65-17.47,35.76-18.14c6.54-0.31,13.12-0.43,19.66-0.09c11.36,0.6,19.01,14.52,15.17,27.17
			c-2.88,9.49-8.18,13.69-17.45,13.8c-2.83,0.03-5.68,0.22-8.5-0.02c-19.11-1.62-32.48,16.39-32.41,35.82
			c0.22,55.33,0.08,110.66,0.08,165.99c0,59.63,0.04,119.26-0.04,178.89c-0.01,10.62,2.56,20.15,9.34,27.68
			c5.79,6.43,13.35,8.22,21.48,8.21c65.38-0.09,130.77-0.1,196.15-0.01c13.8,0.02,22.05,13.08,18.99,26.33
			c-2.41,10.42-8.1,15.94-17.58,15.93c-66.98-0.09-133.96-0.17-200.93,0c-22.9,0.06-45.56-19.32-54.54-41.98
			c-5.09-12.86-6.99-26.03-6.96-39.88C721.74,326.34,721.67,270.23,721.67,214.12z"/>
		<path class="st0" d="M1130.02,213.77c0,57.68-0.03,115.37,0.01,173.05c0.02,24.33-7.91,45.08-24.15,61.26
			c-7.5,7.47-16.51,13.74-27.02,14.87c-10.01,1.08-20.15,1.29-30.21,1.08c-7.29-0.16-12.74-6.47-14.74-15.3
			c-1.93-8.51,1.05-18.06,7.11-22.33c4.01-2.82,8.16-5.09,13.25-4.47c3.33,0.41,6.74-0.1,10.09,0.11
			c19.86,1.24,31.54-14.06,31.59-34.97c0.1-42.63,0.03-85.25,0.03-127.88c0-71.76-0.12-143.53,0.09-215.29
			c0.05-16.89-5.74-29.46-19.66-36.65c-3.34-1.72-7.61-1.7-11.46-1.7c-63.44-0.1-126.89-0.06-190.33-0.07
			c-17.89,0-25.78-14.28-17.74-32.05c3.2-7.08,8.87-9.01,15.42-9.02c36.86-0.02,73.72-0.01,110.58-0.01
			c28.35,0,56.71,0.13,85.06-0.04c15.73-0.1,29.21,6.41,40.11,18.12c14.79,15.89,21.99,35.85,21.98,58.82
			C1130.01,98.8,1130.02,156.29,1130.02,213.77z"/>
		<path class="st0" d="M987.98,214.03c-13.86-8.78-26.79-16.94-39.69-25.15c-13.52-8.61-27.02-17.26-40.51-25.93
			c-11.5-7.4-22.96-14.87-34.46-22.28c-1.01-0.65-2.17-1.02-3.74-1.73c0,50.46,0,100.33,0,151.19c5.22-3.03,9.92-5.58,14.47-8.44
			c7.14-4.49,14.2-9.15,21.26-13.79c5.78-3.81,17.57,4.73,19.71,11.35c3.58,11.06,1.1,22.29-9.94,29.29
			c-10.92,6.93-21.72,14.11-32.56,21.21c-7.48,4.9-15.23,8.33-24.19,6.07c-12.85-3.25-22.79-16.11-22.92-31.15
			c-0.31-35.97-0.19-71.94-0.21-107.91c-0.02-23.66,0.05-47.31,0-70.97c-0.03-15.15,9.35-30.47,22.55-32.5
			c5.69-0.88,12.62-0.9,17.45,1.91c17.17,9.99,33.68,21.38,50.45,32.22c6.51,4.21,12.99,8.46,19.55,12.57
			c10.25,6.42,20.59,12.64,30.81,19.12c12.77,8.1,25.8,15.79,38.08,24.71c12.77,9.28,16.95,27.53,11.48,44.84
			c-2.57,8.11-7.82,13.53-13.87,17.66c-14.02,9.57-28.35,18.63-42.88,27.23c-3.59,2.13-8.6,2.89-12.65,2.19
			c-7.82-1.35-11.24-6.4-13.09-16.9c-1.49-8.45,2.76-17.22,9.15-21.37C963.8,229.96,975.33,222.33,987.98,214.03z"/>
	</g>
</g>
<g id="_x33_ScMsC.tif">
	<g>
		<path class="st1" d="M894.55,300.05c27.81,0,55.61-0.21,83.42,0.06c31.37,0.3,57.44,23.9,63.34,57.83
			c4.23,24.35-2.06,46.49-14.5,66.54c-17.58,28.34-42.72,45.73-71.24,57.55c-11.05,4.58-22.58,7.85-34.03,11.12
			c-11.33,3.23-20.25-2.46-22.66-13.67c-2.31-10.72,3.98-20.21,15.41-22.93c22.18-5.29,43.14-13.88,61.75-28.44
			c14.59-11.41,26.63-25.21,31.15-45.14c4.8-21.2-4.39-39.81-22.03-44.4c-3.39-0.88-7.02-0.91-10.54-0.91
			c-54.9-0.06-109.81-0.04-164.71-0.05c-1.77,0-3.55,0.07-5.31-0.13c-9.74-1.09-16.26-9.21-15.9-19.7
			c0.34-10.01,7.44-17.61,17.12-17.65c29.58-0.14,59.16-0.05,88.73-0.05C894.55,300.06,894.55,300.05,894.55,300.05z"/>
		<path class="st1" d="M853.31,499.91c-42.02-1.46-82.26-10.39-118.57-35.1c-23.02-15.67-41.44-36-50.67-64.83
			c-12.28-38.38,1.71-77.09,33.43-93.57c14.58-7.57,29.98-7.1,45.36-5.84c7.71,0.63,13.29,9.03,13.39,17.83
			c0.11,8.94-4.97,16.78-12.84,18.31c-5.35,1.03-10.96,1.24-16.39,0.8c-20.7-1.66-38.66,18.11-31.94,46.04
			c3.4,14.11,10.7,25.42,20.3,35.04c20.39,20.44,45.11,31.09,71.5,37.7c18.74,4.7,37.78,6.25,56.97,6.26
			c13.25,0.01,21.77,12.37,17.47,25.03c-2.52,7.41-7.43,11.83-14.73,12.29C862.18,500.14,857.74,499.91,853.31,499.91z"/>
		<path class="st1" d="M974.69,121.16c2.43,62.76-42.67,121.09-99.55,127.44c-11.82,1.32-23.99,0.09-35.89-1.23
			c-10.88-1.21-17.16-11.35-15.28-22.36c1.78-10.41,10.96-16.55,21.49-14.36c36.39,7.56,71.72-11.9,87.3-48.09
			c15.71-36.49,7.08-78.98-21.44-105.52c-9.68-9.01-10.6-22.22-2.11-30.28c6.33-6.01,15.09-6.31,21.96-0.25
			c22.48,19.82,36.39,45.4,41.53,76.65C973.69,109.09,974.04,115.16,974.69,121.16z"/>
		<path class="st1" d="M747.46,128.55C745.17,66.67,788.68,9.24,844.34,1.22c7.17-1.03,14.47-1.28,21.71-1.21
			c9.94,0.09,17.37,8.62,17.16,18.93c-0.21,10.31-7.92,17.89-17.76,18.62c-9.47,0.7-19.3,0.91-28.26,3.93
			c-54.11,18.28-73.19,91.86-36.9,139.92c3.06,4.05,5.2,9.84,5.77,15.09c0.82,7.52-4.37,14.35-10.87,16.97
			c-6.76,2.73-13.62,0.86-18.78-5.52c-14.23-17.63-23.27-38.12-26.94-61.39C748.52,140.62,748.11,134.56,747.46,128.55z"/>
	</g>
</g>
<path class="st1" d="M1240.78,287.24h-167.51V102.46c0-17.94-13.3-32.61-29.56-32.61s-29.56,14.67-29.56,32.61v184.78H846.63
	c-16.26,0-29.56,14.67-29.56,32.61c0,17.94,13.3,32.61,29.56,32.61h167.51v184.78c0,17.94,13.3,32.61,29.56,32.61
	s29.56-14.67,29.56-32.61V352.46h167.51c16.26,0,29.56-14.67,29.56-32.61C1270.34,301.92,1257.04,287.24,1240.78,287.24z"/>
<g id="clqg10.tif">
	<g>
		<path class="st1" d="M-166.72,343.78c-0.75-2.29-1.86-4.28-3.23-6.13c-0.74,0.35-1.44,0.71-2.17,1.04
			c-3.84,1.72-8.24-0.74-9.17-5.15c-0.2-0.97-0.28-1.98-0.38-2.97c-0.04-0.4-0.15-0.56-0.53-0.62c-2.39-0.42-4.75-0.26-7.1,0.3
			c-1.08,0.26-1.96-0.37-2.16-1.5c-0.18-1.03,0.46-1.93,1.5-2.19c3.32-0.83,6.63-0.8,9.95,0c0.92,0.22,1.42,0.8,1.54,1.84
			c0.15,1.32,0.3,2.65,0.45,3.97c0.27,2.33,2.61,3.75,4.67,2.81c1.03-0.47,2.05-1,3.07-1.49c0.81-0.39,1.52-0.25,2.09,0.45
			c2.29,2.8,4.07,5.94,5.05,9.58c0.32,1.17,0.12,1.81-0.8,2.53c-0.8,0.63-1.6,1.24-2.39,1.87c-1.94,1.55-1.93,4.64,0.02,6.16
			c0.81,0.63,1.63,1.26,2.44,1.91c0.84,0.67,1.05,1.35,0.75,2.46c-0.99,3.61-2.67,6.78-5,9.55c-0.63,0.75-1.32,0.91-2.17,0.51
			c-0.91-0.44-1.82-0.88-2.73-1.34c-1.14-0.59-2.26-0.6-3.38,0.07c-0.64,0.38-1.28,0.33-1.86-0.15c-0.56-0.47-0.76-1.12-0.64-1.88
			c0.1-0.63,0.45-1.05,0.95-1.34c1.93-1.1,3.91-1.22,5.92-0.32c0.69,0.31,1.36,0.66,2.09,1.01c1.4-1.84,2.47-3.87,3.21-6.15
			c-0.58-0.46-1.15-0.89-1.71-1.34c-3.61-2.89-3.71-8.92-0.18-11.95C-168.01,344.77-167.38,344.3-166.72,343.78z"/>
		<path class="st1" d="M-199.92,337.38c-1.35,1.79-2.4,3.73-3.11,5.89c-0.04,0.12,0.06,0.37,0.16,0.46c0.46,0.4,0.95,0.76,1.43,1.13
			c3.62,2.86,3.74,8.93,0.22,11.95c-0.6,0.52-1.24,0.99-1.85,1.48c0.17,1.29,1.91,4.64,3.2,6.17c0.61-0.3,1.24-0.61,1.87-0.91
			c3.97-1.89,8.49,0.5,9.43,5.02c0.19,0.91,0.23,1.86,0.31,2.8c0.03,0.38,0.17,0.51,0.52,0.57c2.35,0.42,4.68,0.25,7-0.3
			c1.13-0.27,2.01,0.33,2.22,1.48c0.19,1.04-0.45,1.95-1.53,2.22c-3.32,0.83-6.63,0.78-9.95-0.02c-0.88-0.21-1.39-0.83-1.49-1.82
			c-0.11-1.15-0.23-2.3-0.32-3.46c-0.21-2.52-2.52-4.07-4.65-3.1c-1.02,0.46-2.02,0.98-3.03,1.47c-0.94,0.46-1.61,0.29-2.29-0.55
			c-2.23-2.76-3.95-5.84-4.92-9.4c-0.33-1.21-0.13-1.85,0.81-2.58c0.78-0.61,1.56-1.23,2.35-1.84c2.01-1.55,1.88-4.94-0.01-6.21
			c-0.86-0.58-1.66-1.28-2.49-1.93c-0.74-0.59-0.98-1.3-0.72-2.26c1-3.72,2.72-6.98,5.13-9.79c0.56-0.66,1.27-0.79,2.05-0.42
			c0.96,0.46,1.92,0.93,2.88,1.41c1.08,0.54,2.13,0.5,3.19-0.08c0.98-0.54,1.97-0.23,2.42,0.75c0.44,0.96,0.11,2.04-0.84,2.58
			c-1.93,1.1-3.91,1.2-5.92,0.3C-198.54,338.07-199.22,337.72-199.92,337.38z"/>
		<path class="st1" d="M-175.88,351.08c-0.02,5.59-4.09,10.05-9.15,10.03c-5.04-0.03-9.07-4.51-9.06-10.07
			c0.01-5.57,4.11-10.07,9.15-10.03C-179.89,341.05-175.86,345.53-175.88,351.08z M-190.67,351c-0.02,3.5,2.48,6.3,5.65,6.33
			c3.14,0.02,5.69-2.73,5.72-6.19c0.03-3.51-2.46-6.33-5.62-6.36C-188.1,344.76-190.64,347.51-190.67,351z"/>
	</g>
</g>
<g id="WkqA4s.tif_00000181792078408866254750000010615194365443602308_">
	<g>
		<path class="st1" d="M1118.82,302.7c-12.09,4.48-23.69,9.15-35.53,12.96c-4.54,1.46-9.59,1.26-14.41,1.29
			c-19.55,0.13-39.1,0.24-58.65-0.03c-9.24-0.13-18.46-1.11-28.54-1.77c0,6.63,0.02,12.29,0,17.95
			c-0.06,14.32-6.99,21.97-20.07,21.99c-22.53,0.05-45.06,0.06-67.58-0.01c-12.62-0.04-19.53-7.85-19.6-21.89
			c-0.03-5.54,0-11.07,0-17.53c-2.27,0-4.24,0-6.21,0c-26.81,0-53.62,0.07-80.43-0.02c-42.91-0.15-76.42-30.45-84.75-76.76
			c-1.08-6-1.63-12.22-1.65-18.34c-0.11-26.5,0-53,0.15-79.49c0.21-37.4,22.56-61.89,56.6-62.06c18.43-0.09,36.86-0.01,55.3-0.01
			c2.21,0,4.42,0,7.36,0c0-11.27-0.15-22.09,0.04-32.9c0.29-16.37,6.74-29.2,18.99-38.38c6.97-5.22,14.87-7.55,23.22-7.57
			c43.38-0.07,86.76-0.31,130.14,0.08c24.49,0.22,41.94,20.29,42.12,47.22c0.07,10.23,0.01,20.47,0.01,31.55c2.76,0,5.1-0.02,7.44,0
			c21.77,0.25,43.62-0.63,65.3,1.06c24.33,1.89,43.85,23.76,45.68,50.68c1.46,21.46,1.02,43.09,1.03,64.65
			c0.03,80.73-0.05,161.46-0.19,242.19c-0.06,37.53-22.4,62.35-56.3,62.37c-113.39,0.09-226.77,0.09-340.16,0.01
			c-34.01-0.02-56.42-24.74-56.56-62.1c-0.11-28.14-0.11-56.29,0-84.43c0.06-15.71,11.81-25.62,24.12-20.63
			c7.47,3.03,11.59,10.09,11.6,20.39c0.05,27.53,0.02,55.05,0.01,82.58c0,18.27,5.91,24.74,22.63,24.74
			c112.27,0,224.53,0,336.8,0.01c15.95,0,22.08-6.69,22.09-24.12c0.01-42.93,0-85.87,0-128.8
			C1118.82,305.56,1118.82,303.54,1118.82,302.7z M981.69,276.26c9.85,0,18.95-0.1,28.05,0.02c21.56,0.28,43.15,1.51,64.68,0.78
			c23.22-0.78,43.07-23.24,43.71-48.86c0.74-29.76,0.66-59.55,0.6-89.32c-0.02-12.75-7.04-20.33-18.62-20.38
			c-26.99-0.12-53.98-0.03-80.97,0.26c-11.44,0.12-19.55-8.04-19.58-20.66c-0.03-15.82-0.01-31.63-0.02-47.45
			c0-9.5-1.44-11.12-9.98-11.12c-32.39-0.01-64.79,0-97.18,0c-9.31,0-18.62,0.02-27.92-0.01c-3.93-0.01-7.56,1.22-7.73,6.03
			c-0.37,11-0.12,22.02-0.12,33.41c13.35,0,25.99,0,38.63,0c12.85,0,25.7-0.25,38.53,0.1c10.73,0.29,18.06,8.77,17.97,19.96
			c-0.09,11.21-7.54,19.27-18.39,19.35c-31.83,0.23-63.66,0.37-95.49,0.38c-27.18,0.01-54.35-0.33-81.53-0.27
			c-12.12,0.02-18.95,7.75-19.01,21.22c-0.06,13.55,0.29,27.1,0.33,40.65c0.05,14.79-0.02,29.58-0.09,44.36
			c-0.13,26.82,21.12,50.76,46.59,51.25c29.22,0.57,58.45,0.17,87.68,0.17c0.7,0,1.39-0.25,2.59-0.48c0-6.27-0.09-12.39,0.02-18.5
			c0.2-11.64,7.16-20.12,17.75-20.28c23.82-0.35,47.66-0.34,71.48-0.02c10.86,0.15,17.82,8.64,17.98,20.66
			C981.76,263.47,981.69,269.39,981.69,276.26z M945.77,276.71c-12.11,0-23.7,0-35.24,0c0,13.14,0,25.78,0,38.46
			c11.92,0,23.5,0,35.24,0C945.77,302.19,945.77,289.71,945.77,276.71z"/>
	</g>
</g>
<g id="_x31_tVIAV.tif_00000049193602889983677850000000748039462362122378_">
	<g>
		<path class="st1" d="M931.21,385.88c15,0,30,0.01,45-0.01c9.02-0.01,12.58-3.9,12.66-13.98c0.08-10.01,0.11-20.02,0-30.02
			c-0.1-8.92,3.19-15.31,10.36-19.75c16.79-10.38,30.93-24.2,42.76-40.97c6.41-9.08,15.86-10.88,23.51-4.94
			c8.12,6.3,9.43,18.12,2.97,27.46c-11.75,16.96-25.61,31.48-41.86,43.11c-3.14,2.25-4.33,4.65-4.34,8.81
			c-0.02,9.78,0.17,19.7-1.21,29.31c-1.85,12.93-8.69,22.96-18.66,30.04c-2.75,1.95-3.45,4.05-3.47,7.45
			c-0.04,11.33,0.57,22.83-0.89,33.97c-3.07,23.36-20.5,39.83-41.99,40.43c-16.04,0.45-32.1,0.48-48.13,0
			c-23.91-0.72-42.34-21.56-42.85-47.91c-0.17-8.85,0.1-17.71-0.18-26.55c-0.06-1.82-1.3-4.34-2.68-5.26
			c-15.45-10.23-22.77-25.36-22.89-45.02c-0.04-7.11,1.82-15.29-0.74-21.04c-2.53-5.69-9.61-8.87-14.62-13.25
			c-63.43-55.49-83.16-152.98-46.97-232.06c4-8.73,10.59-12.6,18.75-10.99c7.11,1.4,13.08,8.02,13.21,16.35
			c0.07,4.55-1.51,9.38-3.21,13.66c-20.59,51.88-17.64,101.82,10.25,149.5c11.62,19.87,27.08,35.65,45.78,47.29
			c7.66,4.76,11.41,11.26,11.12,21.01c-0.29,9.8-0.14,19.63-0.03,29.44c0.11,10,3.77,13.88,12.82,13.89
			C900.86,385.89,916.03,385.88,931.21,385.88z M898.57,423.73c0,8.75-0.18,16.81,0.06,24.85c0.19,6.4,4.17,11.14,9.88,11.24
			c15.67,0.26,31.36,0.23,47.03,0.02c5.11-0.07,9.34-4.06,9.65-9.55c0.49-8.74,0.13-17.55,0.13-26.56
			C942.96,423.73,921.07,423.73,898.57,423.73z"/>
		<path class="st1" d="M931.25-2.85c84.48-0.37,158.07,69.22,170.54,161.35c2.87,21.24,3.36,42.54-0.2,63.74
			c-1.93,11.5-10.36,17.8-20.15,15.7c-9.14-1.96-14.14-11.66-12.61-22.93c12.32-91.06-42.04-163.2-110.73-177.94
			c-37.43-8.03-71.92,0.82-104.03,22.73c-1.48,1.01-2.92,2.09-4.42,3.07c-8.53,5.55-18.33,3.16-23.33-5.65
			c-4.88-8.61-2.77-19.5,5.24-25.35C861.77,9.8,894.81-2.48,931.25-2.85z"/>
	</g>
</g>
<g id="abIp8T.tif_00000150075571670114033020000016216490413598851245_">
	<g>
		<path class="st1" d="M1092.93,182.9c-11.48,0-22.23,0-33.92,0c0,2.25,0,4.48,0,6.71c0,39.2,0.01,78.4,0,117.61
			c0,14.53-5.05,25.86-17.54,31.85c-8.87,4.25-17.63,3.02-25.89-2.38c-6.69-4.36-13.43-8.65-19.94-13.32
			c-3.21-2.31-5.71-2.54-9.03-0.1c-6.32,4.64-12.93,8.78-19.48,13.02c-20.68,13.37-43.66-0.63-43.85-27.08
			c-0.27-39.59-0.08-79.18-0.08-118.78c0-2.3,0-4.6,0-7.46c-2.34-0.13-4.21-0.31-6.08-0.31c-33.06-0.02-66.12-0.03-99.18,0
			c-13.32,0.01-19.33,6.72-19.36,21.55c-0.03,16.19,0.03,32.38-0.03,48.56c-0.04,12.58-6.84,20.91-16.92,20.88
			c-9.96-0.03-17.03-8.55-16.99-20.97c0.07-19.49-0.59-39.07,0.78-58.46c1.94-27.34,22.63-48.12,47.48-48.81
			c19.96-0.55,39.95-0.19,59.93-0.24c53.21-0.14,106.42-0.33,159.62-0.39c21.39-0.02,42.77,0.19,64.16,0.41
			c18.9,0.19,30.2,12.24,30.23,33.06c0.13,95.76,0.08,191.52,0.03,287.28c-0.01,11.98-7.23,20.4-17.02,20.4
			c-9.96,0-16.9-8.51-16.91-20.96c-0.02-91.28-0.02-182.55-0.02-273.83C1092.93,188.64,1092.93,186.13,1092.93,182.9z M1024.63,299
			c0-39.28,0-77.53,0-115.79c-22.6,0-44.79,0-67.05,0c0,38.56,0,76.77,0,115.72c6.16-4.06,11.81-7.6,17.29-11.43
			c10.82-7.56,21.53-7.48,32.36-0.02C1012.74,291.28,1018.39,294.88,1024.63,299z"/>
		<path class="st1" d="M798.57,533.92c34.39-3.93,68.31-1.64,102.16-1.84c66.29-0.4,132.58-0.11,198.86-0.12
			c3.18,0,6.36-0.2,9.54-0.18c10.17,0.05,17.89,8.31,17.92,19.47c0.04,20.09,0.07,40.17-0.2,60.26
			c-0.27,20.52-11.35,32.69-29.92,32.79c-31.11,0.17-62.22,0-93.33,0.06c-61.16,0.11-122.31,0.25-183.47,0.43
			c-12.63,0.04-24.53-2.46-34.93-11.01c-13.38-10.98-20.56-25.94-20.61-44c-0.25-85.41-0.06-170.83,0.07-256.24
			c0.02-11.92,7.41-19.98,17.43-19.77c9.81,0.21,16.44,8.14,16.45,20.1c0.05,64.55,0.02,129.1,0.03,193.65
			C798.57,529.78,798.57,532.06,798.57,533.92z M1092.68,569.43c-2.4,0-4.3,0-6.2,0c-14.14,0-28.28,0-42.42,0
			c-75.47,0-150.94-0.02-226.41,0.02c-11.96,0.01-18.73,6.87-18.66,18.57c0.08,11.97,6.65,18.61,18.49,18.62
			c89.61,0.08,179.22,0.15,268.83,0.23c2.04,0,4.08,0,6.37,0C1092.68,594.15,1092.68,582.32,1092.68,569.43z"/>
	</g>
</g>
<g id="K9ZBK4.tif_00000094586419315865884660000017626625463301435270_">
	<g>
		<path class="st1" d="M709.83,319.65c0-57.48,0.04-114.96-0.02-172.44c-0.03-22.96,7.03-42.96,21.75-58.92
			c9.69-10.52,21.65-17.47,35.76-18.14c6.54-0.31,13.12-0.43,19.66-0.09c11.36,0.6,19.01,14.52,15.17,27.17
			c-2.88,9.49-8.18,13.69-17.45,13.8c-2.83,0.03-5.68,0.22-8.5-0.02c-19.11-1.62-32.48,16.39-32.41,35.82
			c0.22,55.33,0.08,110.66,0.08,165.99c0,59.63,0.04,119.26-0.04,178.89c-0.01,10.62,2.56,20.15,9.34,27.68
			c5.79,6.43,13.35,8.22,21.48,8.21c65.38-0.09,130.77-0.1,196.15-0.01c13.8,0.02,22.05,13.08,18.99,26.33
			c-2.41,10.42-8.1,15.94-17.58,15.93c-66.98-0.09-133.96-0.17-200.93,0c-22.9,0.06-45.56-19.32-54.54-41.98
			c-5.09-12.86-6.99-26.03-6.96-39.88C709.9,431.88,709.83,375.77,709.83,319.65z"/>
		<path class="st1" d="M1118.19,319.31c0,57.68-0.03,115.37,0.01,173.05c0.02,24.33-7.91,45.08-24.15,61.26
			c-7.5,7.47-16.51,13.74-27.02,14.87c-10.01,1.08-20.15,1.29-30.21,1.08c-7.29-0.16-12.74-6.47-14.74-15.3
			c-1.93-8.51,1.05-18.06,7.11-22.33c4.01-2.82,8.16-5.09,13.25-4.47c3.33,0.41,6.74-0.1,10.09,0.11
			c19.86,1.24,31.54-14.06,31.59-34.97c0.1-42.63,0.03-85.25,0.03-127.88c0-71.76-0.12-143.53,0.09-215.29
			c0.05-16.89-5.74-29.46-19.66-36.65c-3.34-1.72-7.61-1.7-11.46-1.7c-63.44-0.1-126.89-0.06-190.33-0.07
			c-17.89,0-25.78-14.28-17.74-32.05c3.2-7.08,8.87-9.01,15.42-9.02c36.86-0.02,73.72-0.01,110.58-0.01
			c28.35,0,56.71,0.13,85.06-0.04c15.73-0.1,29.21,6.41,40.11,18.12c14.79,15.89,21.99,35.85,21.98,58.82
			C1118.17,204.33,1118.19,261.82,1118.19,319.31z"/>
		<path class="st1" d="M976.14,319.56c-13.86-8.78-26.79-16.94-39.69-25.15c-13.52-8.61-27.02-17.26-40.51-25.93
			c-11.5-7.4-22.96-14.87-34.46-22.28c-1.01-0.65-2.17-1.02-3.74-1.73c0,50.46,0,100.33,0,151.19c5.22-3.03,9.92-5.58,14.47-8.44
			c7.14-4.49,14.2-9.14,21.26-13.79c5.78-3.81,17.57,4.73,19.71,11.35c3.58,11.06,1.1,22.29-9.94,29.29
			c-10.92,6.93-21.72,14.11-32.56,21.21c-7.48,4.9-15.23,8.33-24.19,6.07c-12.85-3.25-22.79-16.11-22.92-31.15
			c-0.31-35.97-0.19-71.94-0.21-107.91c-0.02-23.66,0.05-47.31,0-70.97c-0.03-15.15,9.35-30.47,22.55-32.5
			c5.69-0.88,12.62-0.9,17.45,1.91c17.17,9.99,33.68,21.38,50.45,32.22c6.51,4.21,12.99,8.46,19.55,12.57
			c10.25,6.42,20.59,12.64,30.81,19.12c12.77,8.1,25.8,15.79,38.08,24.71c12.77,9.28,16.95,27.53,11.48,44.84
			c-2.57,8.11-7.82,13.53-13.87,17.66c-14.02,9.57-28.35,18.63-42.88,27.23c-3.59,2.13-8.6,2.89-12.65,2.19
			c-7.82-1.35-11.24-6.4-13.09-16.9c-1.49-8.45,2.76-17.22,9.15-21.37C951.96,335.49,963.49,327.86,976.14,319.56z"/>
	</g>
</g>
<g id="c4m5PF.tif">
	<g>
		<path class="st1" d="M992.03,504.94c21.67,0,43.34-0.05,65.02,0.01c28.94,0.08,47.2,20.22,47.23,52.08
			c0.04,41.79-0.04,83.58,0.03,125.37c0.04,21.97-4.63,42.6-13.82,62.04c-5.57,11.78-16.21,16.18-25.91,10.73
			c-9.71-5.46-12.93-17.48-7.47-29.33c6.77-14.7,9.84-30.15,9.74-46.67c-0.23-40.71-0.07-81.43-0.08-122.14
			c0-8.67-1.78-10.7-9.58-10.7c-43.54-0.02-87.08-0.02-130.62,0c-7.94,0-9.75,1.97-9.76,10.49c-0.01,42.22-0.07,84.44,0.02,126.67
			c0.1,45.61,32.47,82.22,73.69,83.53c11.95,0.38,20.18,9.07,20,21.1c-0.18,12-8.72,20.38-20.68,20.28
			c-58.64-0.5-109.51-55.4-110.38-120.05c-0.6-45.23-0.32-90.47-0.08-135.71c0.15-26.85,19.44-47.28,44.7-47.63
			C946.73,504.7,969.38,504.95,992.03,504.94z"/>
		<path class="st1" d="M741.92,604.8c0-17.87-0.08-35.74,0.02-53.61c0.15-27.71,16.76-46.05,41.91-46.23
			c18.54-0.13,37.08-0.13,55.61,0.01c9.63,0.08,16.48,5.68,19,14.94c2.33,8.55-0.28,18.09-7.31,22.57
			c-3.67,2.34-8.39,3.57-12.67,3.67c-17.75,0.39-35.51,0.26-53.27,0.09c-4.16-0.04-5.89,1.19-5.86,6.18
			c0.2,35.74-0.21,71.48,0.34,107.21c0.44,28.76,17.87,53.97,41.65,61.33c6.13,1.9,12.62,2.73,19,3.25
			c11.05,0.9,19.09,9.47,18.98,20.99c-0.11,11.78-8.65,20.56-19.95,20.5c-52.89-0.29-95.7-46.23-97.21-104.71
			c-0.48-18.71-0.08-37.46-0.08-56.19C742.03,604.8,741.98,604.8,741.92,604.8z"/>
		<path class="st1" d="M1241.52,606.88c0,18.96,0.94,37.98-0.19,56.86c-2.65,44.35-22.64,76.05-59.81,93.79
			c-11.77,5.62-24.39,7.51-37.23,6.84c-10.95-0.57-19.05-9.78-18.79-21.2c0.26-11.5,8.61-20.58,19.64-20.03
			c34.11,1.71,59.17-30.02,59.04-64.64c-0.14-35.11-0.11-70.23,0.09-105.34c0.03-5.46-1.63-7-6.41-6.93
			c-17.57,0.25-35.14,0.14-52.72,0.08c-12.48-0.04-20.94-8.49-20.86-20.68c0.07-12.18,8.58-20.61,21.06-20.66
			c18.16-0.07,36.32-0.12,54.47,0c25.08,0.16,41.66,18.58,41.85,46.34c0.06,9.26,0.01,18.53,0.01,27.79s0,18.53,0,27.79
			C1241.62,606.88,1241.57,606.88,1241.52,606.88z"/>
		<path class="st1" d="M827,487.03c-36.64,0.16-66.26-32.46-66.27-72.97c-0.01-40.44,29.74-73.29,66.22-73.14
			c36.3,0.15,65.83,32.62,66.17,72.77C893.46,453.78,863.61,486.88,827,487.03z M798.22,413.9c-0.07,17.61,12.43,31.6,28.34,31.72
			c16.04,0.12,29.2-14.27,29.06-31.79c-0.13-17.29-13.09-31.46-28.82-31.51C811.06,382.27,798.29,396.38,798.22,413.9z"/>
		<path class="st1" d="M1224.13,414.36c-0.18,40.54-29.97,73.06-66.54,72.65c-36.48-0.42-65.83-32.95-65.85-72.98
			c-0.02-40.14,30.1-73.27,66.45-73.09C1194.84,341.12,1224.3,373.93,1224.13,414.36z M1186.63,413.91
			c-0.06-17.5-12.83-31.62-28.58-31.6c-15.69,0.01-28.65,14.19-28.82,31.52c-0.17,17.5,13,31.93,29.04,31.8
			C1174.18,445.51,1186.69,431.52,1186.63,413.91z"/>
		<path class="st1" d="M1066.77,395.07c-0.21,43.22-30.45,79.13-69.23,82.19c-39.49,3.13-74.11-27.34-79.74-70.23
			c-0.5-3.82-0.91-7.7-0.94-11.55c-0.09-11.98,8.02-21.27,18.47-21.41c10.26-0.14,18.34,8.5,18.96,20.27
			c1.05,19.77,9.92,33.87,25.29,39.4c14.91,5.37,28.42,2.04,39.23-10.42c10.99-12.67,13.51-28.07,7.57-44.29
			c-5.88-16.06-17.39-24.46-33.02-25.56c-12.53-0.88-20.65-9.26-20.28-21.48c0.37-12.19,9.19-20.34,21.56-19.9
			C1034.86,313.5,1066.99,350.46,1066.77,395.07z"/>
	</g>
</g>
<g id="MK0EZQ.tif">
	<g>
		<path class="st1" d="M499.79,250c0,49.42,0.02,98.84-0.01,148.26c-0.03,43.5-28.31,74.72-67.82,74.84
			c-19.34,0.06-38.67,0.11-58.01-0.11c-8.03-0.09-14.43-5.77-16.61-13.83c-2.1-7.77,0.26-17.11,6.58-21.21
			c3.79-2.46,8.65-3.94,13.07-4.04c18.21-0.44,36.44-0.15,54.66-0.19c20.64-0.04,32.43-13.11,32.43-35.95
			c0.01-98.23,0-196.45,0-294.68c0-23.71-11.57-36.6-32.94-36.61c-71.95-0.01-143.9,0-215.85-0.01c-2.23,0-4.48,0.07-6.68-0.26
			c-9.95-1.49-16.41-10.02-15.89-20.8c0.51-10.36,7.71-18.17,17.63-18.24c28.07-0.19,56.15-0.09,84.22-0.09
			c45.55,0,91.11,0.74,136.65-0.23c38.47-0.82,69.5,33.5,68.77,76.12C499.14,151.97,499.79,200.99,499.79,250z"/>
		<path class="st1" d="M35.73,250.4c0,49.2-0.01,98.41,0,147.61c0.01,22.69,11.89,35.71,32.62,35.72
			c75.46,0.02,150.93,0,226.39,0.01c13.14,0,21.29,7.94,21.02,20.36c-0.21,9.9-7,18.05-15.94,18.82c-3.88,0.34-7.8,0.19-11.7,0.19
			c-73.61,0.01-147.21,0.07-220.82-0.02c-32.55-0.04-58.39-22.32-65.62-56.49c-1.13-5.33-1.6-10.95-1.6-16.44
			c-0.09-100.05-0.12-200.09-0.04-300.14c0.03-40.47,28.45-72.24,65.05-72.9c10.96-0.2,21.93-0.12,32.9-0.02
			c11.62,0.11,19.29,8.01,19.27,19.62c-0.02,11.48-7.81,19.55-19.34,19.72c-10.41,0.15-20.82-0.04-31.23,0.06
			c-18.81,0.18-30.94,13.65-30.95,34.44C35.7,150.76,35.73,200.58,35.73,250.4z"/>
		<path class="st1" d="M345.46,223.13c-9.56-1.72-18.45-3.35-27.35-4.9c-7.89-1.37-15.8-2.55-23.68-3.97
			c-10.63-1.93-18.42-8.25-23.32-18.84c-5.99-12.95-11.95-25.92-17.94-38.87c-0.82-1.76-1.76-3.45-3.2-6.24
			c-1.55,3.2-2.67,5.44-3.72,7.72c-5.57,12.04-11.18,24.05-16.65,36.14c-5.3,11.72-13.74,18.42-25.49,20.34
			c-14.7,2.4-29.37,4.99-44.04,7.53c-1.63,0.28-3.23,0.81-5.84,1.48c1.72,2.12,2.94,3.77,4.29,5.27
			c10.11,11.18,20.18,22.41,30.38,33.47c7.32,7.94,10,17.49,8.74,28.55c-1.09,9.49-7.89,16.61-16.33,17.19
			c-8.65,0.59-15.9-5.34-18.53-14.4c-1.02-3.51-2.76-7.11-5.04-9.76c-8.58-9.95-17.47-19.58-26.34-29.23
			c-11.23-12.22-14.02-26.87-9.2-42.93c4.84-16.11,15.15-25.74,30.75-28.19c13.79-2.16,27.54-4.6,41.25-7.32
			c2.08-0.41,4.55-2.59,5.58-4.7c5.65-11.53,10.97-23.25,16.28-34.97c7.04-15.52,18.6-23.04,34.07-23.04
			c15.53-0.01,26.96,7.84,34,23.23c5.35,11.7,10.58,23.48,16.21,35.01c1.01,2.07,3.61,4.07,5.73,4.48
			c14.26,2.77,28.62,4.96,42.9,7.61c27.45,5.09,40.46,42.53,23.19,66.55c-6.85,9.53-17.49,11.62-25.59,5.05
			c-8.25-6.7-9.57-18.15-3.28-28.32C343.91,226.09,344.41,225.05,345.46,223.13z"/>
		<path class="st1" d="M189.86,349.23c5.17-2.9,9.43-5.25,13.66-7.66c10.38-5.93,20.8-11.78,31.11-17.87
			c10.34-6.11,20.52-6.04,30.84,0.03c14.21,8.36,28.5,16.56,44.16,25.64c-1.18-9.3-2.13-17.24-3.21-25.16
			c-1.52-11.14-3.21-22.24-4.69-33.39c-1.35-10.21,4.85-19.87,13.92-22c9.24-2.16,19.22,4.12,20.88,14.49
			c3.3,20.56,6.87,41.18,8.36,61.95c2.23,31.12-27.49,52.05-53.13,38.14c-12.49-6.77-24.74-14.08-36.93-21.49
			c-3.53-2.15-6.19-2.04-9.68,0.04c-12.07,7.22-24.21,14.33-36.55,20.98c-23.08,12.43-50.5-3.5-53.99-31.48
			c-0.69-5.51,0.01-11.51,1.21-16.98c2.23-10.23,11.28-16.04,20.59-14.09c8.71,1.82,14.98,11.18,14.22,21.26
			C190.46,343.78,190.2,345.91,189.86,349.23z"/>
	</g>
</g>
</svg>
