<svg id="Layer_1" data-name="Layer 1" xmlns="http://www.w3.org/2000/svg" viewBox="0 0 25.51 29.76"><defs><style>.cls-1{fill:#ff7100;}</style></defs><title>Artboard 2</title><path class="cls-1" d="M11.93,15.16c-.49.74-1,1.42-1.41,2.13a14.71,14.71,0,0,0-2.14,5.08,4.11,4.11,0,0,0,.79,3.68,3.69,3.69,0,0,0,3.93,1.07A3.62,3.62,0,0,0,15.64,24c0-.17,0-.34,0-.51a1.08,1.08,0,0,1,1-1,1,1,0,0,1,1.09.94,9.83,9.83,0,0,1-.26,1.94,7.79,7.79,0,0,1-.41,1.08A9.64,9.64,0,0,0,19.27,25a12,12,0,0,0,3.83-7.17,13.72,13.72,0,0,0-.39-6.79c-.12-.34-.27-.67-.41-1a.34.34,0,0,0-.05-.08c-.57.61-1.12,1.24-1.73,1.81a7.18,7.18,0,0,1-1.37.93A1.88,1.88,0,0,1,17,12.58a2,2,0,0,1-.79-2,9.1,9.1,0,0,0-2.92-8.15.73.73,0,0,0-1.13,0,26.79,26.79,0,0,1-4.67,5C6.14,8.72,4.8,10,3.52,11.26a11.67,11.67,0,0,0-1.43,2,1.12,1.12,0,0,1-1.52.53,1.1,1.1,0,0,1-.4-1.58,14.88,14.88,0,0,1,3.23-4c1.44-1.32,2.91-2.6,4.34-3.92a17.06,17.06,0,0,0,2.57-3A2.88,2.88,0,0,1,14.7.78a11.16,11.16,0,0,1,3.73,9.48c0,.07,0,.14,0,.21s0,.06,0,.14A5.16,5.16,0,0,0,20,9.21a4.49,4.49,0,0,0,.42-.62,2.08,2.08,0,0,1,3.66.14,13.78,13.78,0,0,1,1.43,6.4,15.43,15.43,0,0,1-2.66,9.09,12.17,12.17,0,0,1-11.42,5.5A12.87,12.87,0,0,1,.76,22.84a1.08,1.08,0,0,1,.14-1.4,1,1,0,0,1,1.31-.14,1.59,1.59,0,0,1,.48.55,11.25,11.25,0,0,0,3.59,3.89,1.49,1.49,0,0,0,.2.12c-.11-.45-.24-.86-.31-1.29a8.75,8.75,0,0,1,.44-4.09,23.25,23.25,0,0,1,4.1-7.23,6.09,6.09,0,0,1,.46-.55,1,1,0,0,1,1.59,0c.92,1.23,1.82,2.48,2.68,3.76a1,1,0,0,1-.37,1.45,1.08,1.08,0,0,1-1.49-.36l-1.44-2.14-.21-.26"/></svg>